<?xml version="1.0" standalone="no"?>
<!DOCTYPE svg PUBLIC "-//W3C//DTD SVG 1.1//EN" "http://www.w3.org/Graphics/SVG/1.1/DTD/svg11.dtd" >
<svg>
<metadata>
Created by FontForge 20120731 at Wed Oct  2 02:20:49 2019
 By www
Copyright (c) 2015 by Kostas Bartsokas. All rights reserved.
</metadata>
<defs>
<font id="AvertaW01-Semibold" horiz-adv-x="697" >
  <font-face 
    font-family="AvertaW01-Semibold"
    font-weight="600"
    font-stretch="normal"
    units-per-em="1000"
    panose-1="1 0 0 0 0 0 0 0 0 0"
    ascent="800"
    descent="-200"
    x-height="488"
    cap-height="710"
    bbox="-49 -257 1427 971"
    underline-thickness="50"
    underline-position="-75"
    unicode-range="U+0020-2122"
  />
<missing-glyph horiz-adv-x="449" 
 />
    <glyph glyph-name=".notdef" horiz-adv-x="449" 
 />
    <glyph glyph-name=".null" horiz-adv-x="0" 
 />
    <glyph glyph-name="nonmarkingreturn" horiz-adv-x="333" 
 />
    <glyph glyph-name="space" unicode=" " horiz-adv-x="268" 
 />
    <glyph glyph-name="exclam" unicode="!" horiz-adv-x="270" 
d="M94 224l-20 512h127l-20 -512h-87zM135 -8q-31 0 -53.5 22t-22.5 52t22.5 52.5t53.5 22.5q30 0 52.5 -22.5t22.5 -52.5t-22.5 -52t-52.5 -22z" />
    <glyph glyph-name="quotedbl" unicode="&#x22;" horiz-adv-x="387" 
d="M32 457l31 253h120l-60 -253h-91zM204 457l31 253h120l-60 -253h-91z" />
    <glyph glyph-name="numbersign" unicode="#" horiz-adv-x="639" 
d="M117 -41l30 194h-110v85h123l23 147h-123v84h136l29 187h77l-29 -187h147l29 187h77l-28 -187h114l-1 -84h-127l-22 -147h125v-85h-138l-30 -194h-77l30 194h-147l-30 -194h-78zM237 238h148l22 147h-147z" />
    <glyph glyph-name="dollar" unicode="$" horiz-adv-x="573" 
d="M531 190q0 -29 -8.5 -59.5t-33 -61t-64 -48.5t-82.5 -23v-120h-91v121q-55 8 -107 33t-95 67l71 85q40 -38 89 -58.5t94 -20.5q44 0 72 21t28 55q0 29 -21 52t-106 50q-73 22 -117 44.5t-69.5 59.5t-25.5 91q0 77 50 128.5t137 59.5v125h91v-131q46 -9 92 -29.5t78 -47.5
l-68 -84q-38 28 -80.5 42.5t-78.5 14.5q-43 0 -69 -19t-26 -51q0 -25 21 -45.5t99 -45.5q88 -28 130.5 -51t66 -59.5t23.5 -94.5z" />
    <glyph glyph-name="percent" unicode="%" horiz-adv-x="1023" 
d="M401 -22l-90 39l314 708l90 -39zM247 321q-41 0 -78 14t-65 40.5t-43.5 64t-15.5 80.5q0 30 9.5 63t37 66.5t69.5 51t86 17.5q51 0 99.5 -24.5t75 -72t26.5 -101.5q0 -30 -9.5 -63t-37 -67t-69.5 -51.5t-85 -17.5zM247 406q47 0 77 32.5t30 80.5q0 23 -10.5 49.5
t-37 44.5t-59.5 18q-22 0 -46.5 -11t-41.5 -39t-17 -62q0 -23 10.5 -49.5t36.5 -45t58 -18.5zM776 -8q-40 0 -77 14.5t-65 41t-43.5 63.5t-15.5 80q0 30 9.5 63t37 66.5t69.5 51t85 17.5q41 0 78 -14t65 -40.5t43.5 -63.5t15.5 -80q0 -30 -9.5 -63t-37 -67t-69.5 -51.5
t-86 -17.5zM777 78q34 0 60.5 19t36.5 45t10 48q0 23 -10.5 49.5t-37.5 44.5t-59 18q-34 0 -60.5 -19t-36.5 -45t-10 -48q0 -23 10.5 -49.5t37.5 -44.5t59 -18z" />
    <glyph glyph-name="ampersand" unicode="&#x26;" horiz-adv-x="670" 
d="M513 0l-44 55h-2q-72 -63 -186 -63q-47 0 -89.5 15.5t-74.5 44t-49.5 68.5t-17.5 87q0 59 31.5 114.5t98.5 94.5l-79 99q11 87 72.5 145t146.5 58q75 0 131 -36.5t90 -102.5l-96 -37q-18 33 -45 54t-70 22q-35 0 -60 -15.5t-36 -35.5t-15 -36l252 -314h1q13 27 20.5 60
t7.5 60l109 2q0 -55 -15.5 -112t-47.5 -103v-1l99 -123h-132zM167 214q0 -51 35 -83t91 -32q30 0 59.5 9.5t51.5 25.5v2l-159 199q-37 -19 -57.5 -52t-20.5 -69z" />
    <glyph glyph-name="quotesingle" unicode="'" horiz-adv-x="215" 
d="M32 457l31 253h120l-60 -253h-91z" />
    <glyph glyph-name="parenleft" unicode="(" horiz-adv-x="305" 
d="M172 -154q-55 92 -86 207.5t-31 241.5q0 128 31.5 245t88.5 206l85 -39q-35 -64 -59.5 -141t-33 -147.5t-8.5 -123.5q0 -110 26 -215t73 -196z" />
    <glyph glyph-name="parenright" unicode=")" horiz-adv-x="305" 
d="M133 -154l-86 38q47 91 73 196t26 215q0 53 -8.5 123.5t-33 147.5t-59.5 141l85 39q57 -89 88.5 -206t31.5 -245q0 -126 -31 -241.5t-86 -207.5z" />
    <glyph glyph-name="asterisk" unicode="*" horiz-adv-x="407" 
d="M168 386l4 108l-90 -57l-36 62l95 48l-96 51l37 62l90 -57l-4 107h71l-5 -107l92 56l35 -61l-95 -50l95 -49l-35 -62l-90 57l3 -108h-71z" />
    <glyph glyph-name="plus" unicode="+" horiz-adv-x="578" 
d="M237 42v184h-185v102h185v185h103v-185h185v-102h-185v-184h-103z" />
    <glyph glyph-name="comma" unicode="," horiz-adv-x="238" 
d="M27 -132l32 253h120l-70 -253h-82z" />
    <glyph glyph-name="hyphen" unicode="-" horiz-adv-x="407" 
d="M53 254v109h301v-109h-301z" />
    <glyph glyph-name="period" unicode="." horiz-adv-x="270" 
d="M135 -8q-31 0 -53.5 22t-22.5 52t22.5 52.5t53.5 22.5q30 0 52.5 -22.5t22.5 -52.5t-22.5 -52t-52.5 -22z" />
    <glyph glyph-name="slash" unicode="/" horiz-adv-x="430" 
d="M56 -112l-89 41l383 853l88 -41z" />
    <glyph glyph-name="zero" unicode="0" horiz-adv-x="632" 
d="M316 -8q-57 0 -106 23.5t-84 69t-54.5 111.5t-19.5 147q0 76 18 141.5t52.5 112t84 72t109.5 25.5q57 0 106 -23.5t84 -68.5t54.5 -111.5t19.5 -147.5q0 -76 -18 -141t-52 -112t-84 -72.5t-110 -25.5zM316 100q69 0 107.5 64.5t38.5 178.5t-39 179t-107 65t-107 -65
t-39 -179q0 -113 40 -178t106 -65z" />
    <glyph glyph-name="one" unicode="1" horiz-adv-x="399" 
d="M197 0v548l-124 -93l-55 86l201 146h94v-687h-116z" />
    <glyph glyph-name="two" unicode="2" horiz-adv-x="532" 
d="M215 106h268v-106h-441l-2 77l221 233q48 50 72.5 89.5t24.5 79.5q0 21 -10 46.5t-36 43t-59 17.5q-84 0 -131 -81l-83 59q31 59 87 94.5t135 35.5q42 0 81 -14t69 -40.5t47.5 -64.5t17.5 -83q0 -58 -26 -113t-88 -119l-147 -153v-1z" />
    <glyph glyph-name="three" unicode="3" horiz-adv-x="550" 
d="M387 356q51 -23 81 -67.5t30 -102.5q0 -86 -64.5 -140t-163.5 -54q-87 0 -151.5 40.5t-90.5 105.5l100 44q16 -39 50 -60.5t84 -21.5q23 0 50.5 9.5t47.5 34.5t20 58q0 19 -10.5 43t-40.5 42t-78 18h-52v98h63q38 0 61.5 15.5t31 37t7.5 38.5q0 29 -17.5 52.5t-41.5 32
t-44 8.5q-75 0 -113 -60l-93 50q25 52 80.5 84.5t128.5 32.5q68 0 117 -25t74.5 -65t25.5 -92q0 -24 -8 -53.5t-30.5 -57t-53.5 -44.5v-1z" />
    <glyph glyph-name="four" unicode="4" horiz-adv-x="578" 
d="M332 0v116h-300v79l319 492h97v-468h95v-103h-95v-116h-116zM167 216h169v275z" />
    <glyph glyph-name="five" unicode="5" horiz-adv-x="564" 
d="M296 441q44 0 83.5 -15t69.5 -44t47 -70.5t17 -91.5q0 -49 -17.5 -91.5t-49.5 -73t-77.5 -47t-98.5 -16.5q-52 0 -100.5 16.5t-81.5 43t-52 51.5l84 67q22 -32 59 -51.5t81 -19.5q62 0 98.5 35t36.5 88q0 54 -40.5 86.5t-92.5 32.5q-68 0 -112 -36l-63 22l20 360h372
v-106h-263l-9 -155q48 15 89 15z" />
    <glyph glyph-name="six" unicode="6" horiz-adv-x="590" 
d="M328 438q44 0 83.5 -15t68.5 -43.5t45 -70t16 -92.5q0 -35 -12.5 -73.5t-46.5 -76t-85 -56.5t-101 -19q-37 0 -72.5 11t-70 36t-61 69.5t-34 88t-7.5 72.5q0 83 27 158t75.5 133.5t114.5 97t140 52.5l37 -97q-71 -20 -121 -50.5t-83.5 -70.5t-52.5 -91h1q27 17 65.5 27
t73.5 10zM304 100q25 0 53.5 12t48 42t19.5 65q0 23 -11.5 50t-42.5 45.5t-72 18.5q-40 0 -76 -19.5t-59 -49.5v-9q0 -67 41 -111t99 -44z" />
    <glyph glyph-name="seven" unicode="7" horiz-adv-x="494" 
d="M23 687h427v-77l-252 -624l-117 22l239 573h-297v106z" />
    <glyph glyph-name="eight" unicode="8" horiz-adv-x="576" 
d="M416 371q52 -20 85.5 -68t33.5 -114q0 -33 -12.5 -67t-47 -66t-85.5 -47.5t-102 -15.5q-38 0 -80 9.5t-83 36t-61.5 67.5t-20.5 83q0 66 33.5 114t84.5 68v1q-23 10 -44.5 36t-30.5 55.5t-9 53.5q0 82 59.5 129.5t151.5 47.5q46 0 85.5 -12.5t68 -35.5t44 -56t15.5 -73
q0 -24 -9 -53.5t-31 -55t-45 -35.5v-2zM288 592q-43 0 -72 -25.5t-29 -60.5q0 -37 28.5 -61t72.5 -24q45 0 73.5 24t28.5 61q0 36 -29.5 61t-72.5 25zM288 96q26 0 56.5 11t51 38.5t20.5 58.5q0 23 -12 49t-43.5 44t-72.5 18q-26 0 -56.5 -10.5t-50.5 -38t-20 -62.5
q0 -21 12.5 -46.5t44.5 -43.5t70 -18z" />
    <glyph glyph-name="nine" unicode="9" horiz-adv-x="584" 
d="M289 694q50 0 95 -19.5t78.5 -55.5t52.5 -86.5t19 -109.5q0 -86 -27.5 -162t-77 -135t-116 -97.5t-141.5 -52.5l-37 97q204 56 262 211l-1 1q-28 -17 -66 -27t-73 -10q-21 0 -48 5t-54 18.5t-52.5 39t-42 67t-16.5 91.5q0 48 18.5 89.5t52 72t79 47t95.5 16.5zM161 468
q0 -23 11 -50t42 -45.5t72 -18.5q40 0 75.5 19.5t59.5 48.5v10q0 68 -36.5 111.5t-93.5 43.5q-30 0 -59.5 -12.5t-50 -42t-20.5 -64.5z" />
    <glyph glyph-name="colon" unicode=":" horiz-adv-x="270" 
d="M131 346q-31 0 -53.5 22t-22.5 52t22.5 52.5t53.5 22.5q30 0 52.5 -22.5t22.5 -52.5t-22.5 -52t-52.5 -22zM131 -8q-31 0 -53.5 22t-22.5 52t22.5 52.5t53.5 22.5q30 0 52.5 -22.5t22.5 -52.5t-22.5 -52t-52.5 -22z" />
    <glyph glyph-name="semicolon" unicode=";" horiz-adv-x="248" 
d="M118 346q-31 0 -53.5 22t-22.5 52t22.5 52.5t53.5 22.5q30 0 52.5 -22.5t22.5 -52.5t-22.5 -52t-52.5 -22zM27 -132l32 253h120l-70 -253h-82z" />
    <glyph glyph-name="less" unicode="&#x3c;" horiz-adv-x="581" 
d="M517 31l-460 201v84l460 205v-113l-309 -133l309 -133v-111z" />
    <glyph glyph-name="equal" unicode="=" horiz-adv-x="591" 
d="M68 340v102h473v-102h-473zM68 112v102h473v-102h-473z" />
    <glyph glyph-name="greater" unicode="&#x3e;" horiz-adv-x="581" 
d="M64 31v111l309 133l-309 133v113l460 -205v-84z" />
    <glyph glyph-name="question" unicode="?" horiz-adv-x="463" 
d="M145 224v50q0 17 4.5 35t17 38.5t64.5 74.5q39 42 51.5 70t12.5 53q0 41 -25 64.5t-65 23.5q-29 0 -58 -16t-47 -43l-84 78q34 43 86 67.5t112 24.5q62 0 109 -25.5t72.5 -67.5t25.5 -100q0 -26 -9 -57t-29.5 -60.5t-49.5 -57.5q-6 -6 -31.5 -29t-39.5 -41.5t-15 -37.5
l-3 -44h-99zM197 -8q-31 0 -53.5 22t-22.5 52t22.5 52.5t53.5 22.5q30 0 52.5 -22.5t22.5 -52.5t-22.5 -52t-52.5 -22z" />
    <glyph glyph-name="at" unicode="@" horiz-adv-x="900" 
d="M663 466l-27 -262l-1 -25q0 -21 6.5 -35.5t30.5 -14.5q22 0 44 19.5t37 63.5t15 81q0 58 -20.5 110.5t-58 92t-91 61.5t-115.5 22q-48 0 -97.5 -11t-94.5 -38t-82 -71t-57.5 -104t-20.5 -118q0 -61 22.5 -116t62.5 -96.5t92 -64.5t107 -23q105 0 207 51l37 -61
q-110 -73 -244 -73q-77 0 -145 28.5t-118.5 80.5t-78.5 123t-28 152q0 67 21 130t54 112.5t83 90t121.5 64.5t158.5 24q83 0 152.5 -27.5t118.5 -77t75 -116.5t26 -144q0 -38 -9 -75t-24.5 -67.5t-40.5 -55.5t-61.5 -40t-81.5 -15q-59 0 -92 39q-11 13 -18 43h-1
q-21 -34 -56 -53t-77 -19q-74 0 -120.5 52.5t-46.5 137.5q0 34 12.5 80t41.5 83.5t65 53t73 15.5q40 0 71.5 -19t50.5 -53h1l7 65h114zM428 152q25 0 50 13.5t42.5 44.5t17.5 65q0 42 -24.5 69.5t-60.5 27.5q-35 0 -63 -21t-38.5 -49t-10.5 -51q0 -43 25 -71t62 -28z" />
    <glyph glyph-name="A" unicode="A" 
d="M548 0l-54 153h-290l-53 -153h-126l265 710h118l266 -710h-126zM241 257h217l-108 308h-2z" />
    <glyph glyph-name="B" unicode="B" horiz-adv-x="648" 
d="M460 375q62 -15 101.5 -61t39.5 -119q0 -88 -60 -141.5t-173 -53.5h-281v710h247q111 0 171 -44t60 -129q0 -53 -26.5 -96.5t-78.5 -64.5v-1zM208 602v-186h115q49 0 84 24t35 70q0 32 -18 54.5t-48.5 30t-64.5 7.5h-103zM332 108q65 1 104 26.5t39 73.5q0 22 -11.5 46.5
t-44 41t-85.5 16.5h-126v-204h124z" />
    <glyph glyph-name="C" unicode="C" horiz-adv-x="729" 
d="M413 -6q-72 0 -137 23.5t-115 69.5t-78 114t-28 152q0 75 24 142t70 117t113.5 78t150.5 28q55 0 110.5 -18.5t98 -50t71.5 -67.5l-89 -75q-36 43 -86.5 70t-104.5 27q-50 0 -93.5 -18t-74 -51.5t-47.5 -80t-17 -101.5q0 -53 17 -99t48.5 -78.5t74.5 -50.5t92 -18
q27 0 62 9t69 32.5t60 55.5l89 -76q-48 -60 -120 -97t-160 -37z" />
    <glyph glyph-name="D" unicode="D" horiz-adv-x="736" 
d="M87 0v710h226q82 0 151 -26t117.5 -73.5t74.5 -113.5t26 -143t-25 -142.5t-73 -113t-116.5 -73t-151.5 -25.5h-229zM208 108h101q54 0 100.5 18.5t79.5 51.5t50.5 78.5t17.5 97.5q0 53 -17.5 98.5t-50 79t-77.5 52t-97 18.5h-107v-494z" />
    <glyph glyph-name="E" unicode="E" horiz-adv-x="607" 
d="M87 0v710h447v-108h-326v-196h263v-108h-263v-190h347v-108h-468z" />
    <glyph glyph-name="F" unicode="F" horiz-adv-x="595" 
d="M87 0v710h464v-108h-343v-212h288v-109h-288v-281h-121z" />
    <glyph glyph-name="G" unicode="G" horiz-adv-x="759" 
d="M413 -6q-75 0 -141 24.5t-114.5 71.5t-75.5 115t-27 149q0 77 24.5 144t71 116.5t113 76.5t145.5 27q76 0 150 -30t127 -87l-85 -74q-79 77 -193 77q-47 0 -89 -17.5t-73 -50.5t-48 -79.5t-17 -102.5q0 -25 5.5 -57t20 -64t41.5 -61.5t70.5 -48.5t94.5 -19q88 0 158 47
v120h-174v108h294v-296q-49 -40 -123.5 -64.5t-154.5 -24.5z" />
    <glyph glyph-name="H" unicode="H" horiz-adv-x="736" 
d="M87 0v710h121v-317h321v317h120v-710h-120v285h-321v-285h-121z" />
    <glyph glyph-name="I" unicode="I" horiz-adv-x="304" 
d="M91 0v710h121v-710h-121z" />
    <glyph glyph-name="J" unicode="J" horiz-adv-x="507" 
d="M219 -6q-38 0 -77 13t-67 34t-44 42l68 88q21 -25 53 -44t62 -19q45 0 70.5 32t25.5 104v466h121v-467q0 -90 -25 -143.5t-71 -79.5t-116 -26z" />
    <glyph glyph-name="K" unicode="K" horiz-adv-x="664" 
d="M290 296h-2l-80 -95v-201h-121v710h121v-340h2l272 340h154l-267 -317l275 -393h-150z" />
    <glyph glyph-name="L" unicode="L" horiz-adv-x="573" 
d="M87 0v710h121v-602h329v-108h-450z" />
    <glyph glyph-name="M" unicode="M" horiz-adv-x="886" 
d="M678 710h121v-710h-121v476h-1l-195 -339h-79l-194 339h-1v-476h-121v710h121l234 -425h2z" />
    <glyph glyph-name="N" unicode="N" horiz-adv-x="763" 
d="M556 710h120v-710h-123l-345 503v-503h-121v710h120l347 -510h2v510z" />
    <glyph glyph-name="O" unicode="O" horiz-adv-x="827" 
d="M414 -8q-77 0 -144 27t-115 76t-74 116.5t-26 143.5t26 143.5t74 116.5t115 76t144 27q75 0 141 -26t114.5 -74.5t75.5 -116t27 -146.5q0 -78 -27 -146t-75.5 -116t-114.5 -74.5t-141 -26.5zM414 105q48 0 90.5 18.5t74.5 52.5t49.5 80t17.5 99q0 39 -12 82t-44 84.5
t-80 62.5t-96 21q-24 0 -54.5 -6.5t-60.5 -23.5t-57.5 -47t-44.5 -76t-17 -97q0 -38 9.5 -74t28 -66t44 -53t64 -40t88.5 -17z" />
    <glyph glyph-name="P" unicode="P" horiz-adv-x="629" 
d="M87 0v710h257q77 0 130 -26t83 -77t30 -127q0 -42 -12.5 -83t-46.5 -76.5t-87.5 -51.5t-110.5 -16h-122v-253h-121zM208 362h110q36 0 70 11t54 40t20 69q0 26 -11.5 55t-43.5 47t-80 18h-119v-240z" />
    <glyph glyph-name="Q" unicode="Q" horiz-adv-x="848" 
d="M792 65l-68 -86l-90 82q-45 -33 -101.5 -51t-118.5 -18q-77 0 -144 27t-115 76t-74 116.5t-26 143.5t26 143.5t74 116.5t115 76t144 27q75 0 141 -26t114.5 -74.5t75.5 -116t27 -146.5q0 -123 -63 -216zM414 105q74 0 130 39l-71 65l67 81l74 -66q15 27 23.5 62t8.5 69
q0 51 -16.5 97t-47.5 80.5t-74.5 53.5t-93.5 19q-48 0 -91 -18.5t-75 -52t-50 -80t-18 -99.5q0 -39 12 -82t44.5 -84.5t81 -62.5t96.5 -21z" />
    <glyph glyph-name="R" unicode="R" horiz-adv-x="659" 
d="M618 0h-145l-170 253h-95v-253h-121v710h262q76 0 129 -26t83.5 -77t30.5 -127q0 -85 -41 -139t-115 -75v-3zM208 602v-240h115q53 0 87.5 19.5t45.5 48t11 52.5q0 56 -35.5 88t-100.5 32h-123z" />
    <glyph glyph-name="S" unicode="S" horiz-adv-x="591" 
d="M299 -8q-69 0 -136.5 28.5t-120.5 83.5l76 93q36 -44 85.5 -68.5t96.5 -24.5q56 0 87 23.5t31 62.5q0 32 -19 53t-50 34.5t-68 26.5q-70 25 -116 51.5t-72.5 67t-26.5 97.5q0 51 30 98.5t84.5 73.5t110.5 26q123 1 235 -87l-72 -95q-43 35 -85 54t-78 19
q-42 0 -70.5 -22.5t-29.5 -60.5q0 -18 10.5 -35.5t37.5 -31.5t85 -36q105 -41 135.5 -61t48 -41.5t27 -50.5t9.5 -65q0 -39 -14.5 -77.5t-47 -68.5t-80 -48.5t-103.5 -18.5z" />
    <glyph glyph-name="T" unicode="T" horiz-adv-x="589" 
d="M233 0v602h-201v108h526v-108h-204v-602h-121z" />
    <glyph glyph-name="U" unicode="U" horiz-adv-x="719" 
d="M359 -8q-46 0 -94.5 13.5t-84.5 43t-58 65t-33.5 81t-11.5 97.5v418h120v-409q0 -53 19 -99.5t58 -71t85 -24.5q72 0 117.5 52.5t45.5 142.5v409h121v-418q0 -67 -19.5 -123t-56.5 -95.5t-90 -60.5t-118 -21z" />
    <glyph glyph-name="V" unicode="V" horiz-adv-x="691" 
d="M537 710h130l-265 -710h-107l-265 710h130l187 -537h1z" />
    <glyph glyph-name="W" unicode="W" horiz-adv-x="1035" 
d="M875 710h128l-225 -710h-113l-145 534h-2l-148 -534h-113l-225 710h129l152 -513h1l140 513h128l139 -514h1z" />
    <glyph glyph-name="X" unicode="X" horiz-adv-x="694" 
d="M521 0l-173 262h-2l-173 -262h-141l235 356l-230 354h139l171 -260h1l171 260h138l-230 -354l236 -356h-142z" />
    <glyph glyph-name="Y" unicode="Y" horiz-adv-x="625" 
d="M471 710h140l-239 -396v-314h-121v314l-237 396h138l159 -275h2z" />
    <glyph glyph-name="Z" unicode="Z" horiz-adv-x="626" 
d="M210 108h357v-108h-510v95l350 506v1h-334v108h492v-93l-355 -507v-2z" />
    <glyph glyph-name="bracketleft" unicode="[" horiz-adv-x="333" 
d="M59 -147v879h224v-86h-125v-706h125v-87h-224z" />
    <glyph glyph-name="backslash" unicode="\" horiz-adv-x="438" 
d="M374 -112l-382 853l88 41l383 -853z" />
    <glyph glyph-name="bracketright" unicode="]" horiz-adv-x="333" 
d="M274 -147h-224v87h125v706h-125v86h224v-879z" />
    <glyph glyph-name="asciicircum" unicode="^" horiz-adv-x="470" 
d="M55 500l137 210h85l138 -210h-98l-83 135l-85 -135h-94z" />
    <glyph glyph-name="underscore" unicode="_" horiz-adv-x="531" 
d="M-2 -104v77h535v-77h-535z" />
    <glyph glyph-name="grave" unicode="`" horiz-adv-x="503" 
d="M240 538l-124 145l123 -1l115 -144h-114z" />
    <glyph glyph-name="a" unicode="a" horiz-adv-x="611" 
d="M431 488h112v-488h-107v65h-2q-26 -35 -66 -54t-89 -19t-93 18t-76 51t-49.5 79.5t-17.5 101.5q0 53 17.5 100t49.5 81t75.5 53t92.5 19q46 0 85 -17t66 -49h2v59zM297 94q58 0 98.5 41.5t40.5 105.5q0 23 -7 49t-24 49t-44 39t-64 16q-36 0 -70 -18.5t-52 -55t-18 -79.5
q0 -64 39 -105.5t101 -41.5z" />
    <glyph glyph-name="b" unicode="b" horiz-adv-x="621" 
d="M341 495q49 0 92.5 -18.5t76 -53t50 -81.5t17.5 -100q0 -55 -17.5 -101.5t-50 -79.5t-76 -51t-93.5 -18q-102 0 -158 73h-2v-65h-107v736h112v-307h1q27 32 67.5 49t87.5 17zM323 94q61 0 100.5 41.5t39.5 105.5q0 43 -18.5 79.5t-52.5 55t-70 18.5q-62 0 -102 -43.5
t-40 -109.5q0 -24 7.5 -49t25 -47t45.5 -36.5t65 -14.5z" />
    <glyph glyph-name="c" unicode="c" horiz-adv-x="532" 
d="M293 -8q-39 0 -81.5 12t-84 46t-62.5 86.5t-21 106.5q0 55 18.5 101.5t52.5 80.5t81 52t101 18q58 0 114 -24t91 -67l-76 -66q-22 26 -53.5 41t-69.5 15q-65 0 -105 -41.5t-40 -108.5t40.5 -108.5t104.5 -41.5q38 0 70.5 15t53.5 37l77 -68q-33 -38 -89 -62t-122 -24z
" />
    <glyph glyph-name="d" unicode="d" horiz-adv-x="620" 
d="M436 736h111v-736h-107v65h-2q-56 -73 -158 -73q-49 0 -93 18t-76 51t-50 79.5t-18 101.5q0 53 18 100t50 81t75.5 53t92.5 19q47 0 87.5 -17t67.5 -49h2v307zM297 94q22 0 46 7t45.5 24.5t36.5 46.5t15 69q0 66 -40 109.5t-102 43.5q-36 0 -70 -18.5t-52.5 -55
t-18.5 -79.5q0 -64 39.5 -105.5t100.5 -41.5z" />
    <glyph glyph-name="e" unicode="e" horiz-adv-x="562" 
d="M519 250q0 -18 -3 -45h-356q11 -51 48.5 -81t90.5 -30q30 0 63 12.5t59 44.5l78 -67q-32 -41 -85 -66.5t-121 -25.5q-52 0 -98 18t-80 51.5t-52.5 80.5t-18.5 102q0 54 18 101t50 80.5t76 51.5t94 18q52 0 96.5 -18t75.5 -51t48 -78.5t17 -97.5zM288 394q-46 0 -80 -26
t-46 -73h244q-11 45 -41.5 72t-76.5 27z" />
    <glyph glyph-name="f" unicode="f" horiz-adv-x="343" 
d="M91 0v393h-54v95h54v89q0 81 38 124t110 43q70 0 122 -34l-25 -94q-53 25 -81 25q-52 0 -52 -76v-77h120v-95h-120v-393h-112z" />
    <glyph glyph-name="g" unicode="g" horiz-adv-x="607" 
d="M428 488h112v-438q0 -87 -29.5 -142.5t-84 -84t-135.5 -28.5q-54 0 -106 13.5t-93 37.5l27 98q58 -31 94 -39.5t72 -8.5q34 0 69 12t55.5 42.5t20.5 65.5v52h-1q-28 -28 -66.5 -44t-82.5 -16q-50 0 -94 17.5t-76 49.5t-50 76.5t-18 97.5q0 52 17 97.5t48.5 79t74.5 51.5
t92 18q42 0 82 -15.5t70 -43.5h2v52zM295 111q60 0 99 40.5t39 102.5q0 30 -13 62t-47.5 54.5t-77.5 22.5q-62 0 -100.5 -39.5t-38.5 -101.5q0 -64 39.5 -102.5t99.5 -38.5z" />
    <glyph glyph-name="h" unicode="h" horiz-adv-x="598" 
d="M352 495q62 0 102 -24.5t60 -68.5t20 -110v-292h-112v263q0 70 -27 100.5t-79 30.5q-61 0 -96 -37.5t-35 -108.5v-248h-112v736h112v-310h1q30 34 73.5 51.5t92.5 17.5z" />
    <glyph glyph-name="i" unicode="i" horiz-adv-x="272" 
d="M136 560q-31 0 -53 22.5t-22 52.5t22 52t53 22t53.5 -22t22.5 -52t-22.5 -52.5t-53.5 -22.5zM80 0v488h112v-488h-112z" />
    <glyph glyph-name="j" unicode="j" horiz-adv-x="249" 
d="M125 560q-31 0 -53 22.5t-22 52.5t22 52t53 22t53.5 -22t22.5 -52t-22.5 -52.5t-53.5 -22.5zM46 -206q-51 0 -95 18l19 97q22 -14 44 -14q24 0 40 18.5t16 53.5v521h112v-521q0 -82 -38.5 -127.5t-97.5 -45.5z" />
    <glyph glyph-name="k" unicode="k" horiz-adv-x="535" 
d="M268 205h-2l-81 -90v-115h-112v736h112v-471l200 223h133l-176 -197l179 -291h-126z" />
    <glyph glyph-name="l" unicode="l" horiz-adv-x="272" 
d="M80 0v736h112v-736h-112z" />
    <glyph glyph-name="m" unicode="m" horiz-adv-x="897" 
d="M661 495q82 0 126.5 -53t44.5 -160v-282h-112v254q0 67 -23.5 103.5t-71.5 36.5q-22 0 -49 -13t-46 -49.5t-19 -88.5v-243h-112v254q0 66 -24.5 103t-72.5 37q-51 0 -84 -40.5t-33 -110.5v-243h-112v488h112v-68h1q29 36 69.5 55.5t82.5 19.5q49 0 87 -20.5t59 -60.5h2
q30 39 76 60t99 21z" />
    <glyph glyph-name="n" unicode="n" horiz-adv-x="593" 
d="M350 495q62 0 101 -25.5t58.5 -70.5t19.5 -112v-287h-112v258q0 74 -26.5 105t-79.5 31q-58 0 -92 -39t-34 -110v-245h-112v488h112v-68h1q30 36 73.5 55.5t90.5 19.5z" />
    <glyph glyph-name="o" unicode="o" horiz-adv-x="600" 
d="M300 -8q-56 0 -103.5 19t-81.5 53t-52.5 80.5t-18.5 98.5q0 53 18.5 99.5t52.5 80.5t81.5 53t103.5 19q55 0 102.5 -18t81.5 -52t53 -80.5t19 -101.5q0 -54 -19 -100.5t-53 -80t-81.5 -52t-102.5 -18.5zM300 94q60 0 101 42t41 107q0 66 -40.5 108.5t-101.5 42.5
q-63 0 -102.5 -43.5t-39.5 -107.5q0 -63 40 -106t102 -43z" />
    <glyph glyph-name="p" unicode="p" horiz-adv-x="621" 
d="M341 495q49 0 92.5 -18.5t76 -53t50 -81.5t17.5 -100q0 -55 -17.5 -101.5t-50 -79.5t-76 -51t-93.5 -18q-98 0 -154 68h-1v-258h-112v686h112v-60q27 32 67.5 49.5t88.5 17.5zM323 94q61 0 100.5 41.5t39.5 105.5q0 43 -18.5 79.5t-52.5 55t-70 18.5q-62 0 -102 -43.5
t-40 -109.5q0 -24 7.5 -49t25 -47t45.5 -36.5t65 -14.5z" />
    <glyph glyph-name="q" unicode="q" horiz-adv-x="616" 
d="M436 488h112v-686h-112v258h-1q-56 -68 -155 -68q-49 0 -93 18t-76 51t-49.5 79.5t-17.5 101.5q0 53 17.5 100t49.5 81t75.5 53t92.5 19q48 0 88.5 -17.5t67.5 -49.5h1v60zM298 94q44 0 76.5 21.5t49 53.5t16.5 72q0 66 -40 109.5t-102 43.5q-36 0 -70 -18.5t-52 -55
t-18 -79.5q0 -64 39 -105.5t101 -41.5z" />
    <glyph glyph-name="r" unicode="r" horiz-adv-x="372" 
d="M338 495h14v-125l-34 2q-46 0 -78 -23t-43.5 -56.5t-11.5 -61.5v-231h-112v488h112v-74h1q28 38 68 59.5t84 21.5z" />
    <glyph glyph-name="s" unicode="s" horiz-adv-x="449" 
d="M229 -8q-57 0 -108 18.5t-89 52.5l56 84q29 -29 63.5 -43t77.5 -14q31 0 49.5 13t18.5 35q0 13 -15 24.5t-81 34.5q-81 28 -115 65t-34 95q0 37 19.5 67t58.5 50.5t94 20.5q97 0 172 -61l-56 -88q-27 26 -59.5 39t-62.5 13q-19 0 -36 -11t-17 -31q0 -30 77 -59
q74 -29 96.5 -41t37.5 -25.5t25 -34.5t10 -56q0 -31 -11.5 -58t-34 -47t-57 -31.5t-79.5 -11.5z" />
    <glyph glyph-name="t" unicode="t" horiz-adv-x="365" 
d="M218 -8q-64 0 -100 41t-36 121v239h-60v95h60v162l112 12v-174h143v-95h-143v-228q0 -36 11.5 -52t35.5 -16q14 0 34 5.5t38 15.5l29 -97q-25 -14 -53 -21.5t-71 -7.5z" />
    <glyph glyph-name="u" unicode="u" horiz-adv-x="578" 
d="M397 488h112v-488h-112v64q-28 -34 -68 -53t-83 -19q-63 0 -103 23.5t-60 67t-20 108.5v297h112v-267q0 -62 19.5 -94.5t77.5 -32.5q22 0 45.5 10t41.5 31t28 51t10 68v234z" />
    <glyph glyph-name="v" unicode="v" horiz-adv-x="534" 
d="M394 488h120l-193 -488h-107l-194 488h119l128 -348h1z" />
    <glyph glyph-name="w" unicode="w" horiz-adv-x="771" 
d="M634 488h114l-168 -488h-103l-92 307h-1l-92 -307h-101l-168 488h114l105 -321h2l94 321h94l95 -322h2z" />
    <glyph glyph-name="x" unicode="x" horiz-adv-x="527" 
d="M375 0l-111 154h-1l-112 -154h-124l172 249l-171 239h130l104 -154h1l105 154h129l-170 -240l173 -248h-125z" />
    <glyph glyph-name="y" unicode="y" horiz-adv-x="535" 
d="M398 488h117l-268 -686h-118l88 226l-198 460h118l135 -330z" />
    <glyph glyph-name="z" unicode="z" horiz-adv-x="489" 
d="M445 411l-255 -315v-1h251v-95h-401v79l251 311v3h-234v95h388v-77z" />
    <glyph glyph-name="braceleft" unicode="{" horiz-adv-x="357" 
d="M229 396q0 -45 -13 -70t-43 -35q32 -11 44 -32t12 -74v-181q0 -37 13 -55t47 -18h23v-77h-66q-48 0 -81 33.5t-33 88.5v194q0 28 -5.5 43t-23.5 24t-53 10v86q35 2 53 12t23.5 25.5t5.5 40.5v199q0 37 18 67.5t45 42.5t51 12h66v-77h-23q-15 0 -29.5 -7.5t-22.5 -24.5
t-8 -34v-193z" />
    <glyph glyph-name="bar" unicode="|" horiz-adv-x="316" 
d="M109 -115v852h97v-852h-97z" />
    <glyph glyph-name="braceright" unicode="}" horiz-adv-x="357" 
d="M225 411q0 -25 5.5 -40.5t23.5 -25.5t53 -12v-86q-35 -1 -53 -10t-23.5 -24t-5.5 -43v-194q0 -55 -33 -88.5t-81 -33.5h-66v77h23q34 0 47 18t13 55v181q0 40 8.5 66.5t47.5 39.5q-30 10 -43 35t-13 70v193q0 17 -8 34t-22.5 24.5t-29.5 7.5h-23v77h66q24 0 51 -12
t45 -42.5t18 -67.5v-199z" />
    <glyph glyph-name="asciitilde" unicode="~" horiz-adv-x="568" 
d="M135 201l-80 32q19 54 49 82.5t54 33.5t33 5q16 0 39 -3.5t64 -22.5q39 -21 70 -21q16 0 35 10t34 37l80 -27q-18 -56 -53.5 -91t-79.5 -35q-15 0 -38 4t-68 24q-42 20 -68 20q-17 0 -36 -10t-35 -38z" />
    <glyph glyph-name="exclamdown" unicode="&#xa1;" horiz-adv-x="270" 
d="M135 495q30 0 52.5 -22t22.5 -52t-22.5 -52.5t-52.5 -22.5q-31 0 -53.5 22.5t-22.5 52.5t22.5 52t53.5 22zM94 263h87l20 -512h-127z" />
    <glyph glyph-name="cent" unicode="&#xa2;" horiz-adv-x="548" 
d="M509 132q-26 -30 -69 -52.5t-94 -29.5v-98h-88v96q-95 12 -154.5 80.5t-59.5 168.5t59 167.5t155 81.5v97h88v-97q47 -7 89.5 -29.5t71.5 -58.5l-76 -65q-23 25 -55 40t-70 15q-65 0 -106.5 -42t-41.5 -107q0 -66 41.5 -108.5t106.5 -42.5q39 0 72 15t54 38z" />
    <glyph glyph-name="sterling" unicode="&#xa3;" horiz-adv-x="566" 
d="M45 0v108h71v218h-58v82h58v49q0 76 24.5 127.5t70 79.5t110.5 28q57 0 109 -25.5t86 -71.5l-61 -81q-23 31 -54.5 48.5t-63.5 17.5q-102 0 -102 -136v-36h162v-82h-160v-218h301v-108h-493z" />
    <glyph glyph-name="currency" unicode="&#xa4;" horiz-adv-x="510" 
d="M437 387q0 -26 -8.5 -53.5t-22.5 -48.5l78 -78l-51 -52l-79 79q-21 -14 -48.5 -22t-53.5 -8t-52.5 8t-47.5 22l-79 -78l-52 52l79 79q-14 21 -22 47.5t-8 52.5t8 52.5t22 47.5l-79 80l52 52l79 -79q21 14 48.5 22.5t52.5 8.5t52.5 -8.5t48.5 -22.5l79 80l52 -53l-79 -79
q14 -21 22.5 -48.5t8.5 -52.5zM253 284q42 1 73 32t32 72q0 20 -11 44.5t-37 42.5t-57 18q-20 0 -44 -11t-42 -37t-18 -56q0 -20 10.5 -44t36.5 -42t57 -19z" />
    <glyph glyph-name="yen" unicode="&#xa5;" horiz-adv-x="580" 
d="M573 685l-152 -272h82v-70h-122l-26 -47h148v-69h-152v-227h-122v227h-160v69h156l-26 47h-130v70h91l-153 273h139l143 -278h2l142 278z" />
    <glyph glyph-name="brokenbar" unicode="&#xa6;" horiz-adv-x="316" 
d="M109 385v352h97v-352h-97zM109 -114v352h97v-352h-97z" />
    <glyph glyph-name="section" unicode="&#xa7;" horiz-adv-x="552" 
d="M420 137q59 -43 59 -119q0 -77 -56 -124t-147 -47q-62 0 -119 24t-102 70l68 82q33 -35 74 -53t77 -18q35 0 58 17.5t23 46.5q0 22 -16 39t-85 43q-71 27 -112 49t-64 53t-23 73q0 44 20.5 78.5t56.5 53.5q-55 43 -55 115q0 26 9 54.5t31 53t60 42t92 17.5
q51 0 108 -21.5t96 -54.5l-66 -81q-69 50 -132 50q-33 0 -54 -16t-21 -42q0 -20 15 -36t79 -42q94 -38 119.5 -51.5t42.5 -29t29 -39.5t12 -62t-20.5 -71t-56.5 -54zM169 294q0 -14 8.5 -29.5t34.5 -31t75 -33.5l39 -15q13 3 26.5 11t21.5 22t8 30q0 23 -17 41.5t-103 51.5
l-35 14q-27 -6 -42.5 -23t-15.5 -38z" />
    <glyph glyph-name="dieresis" unicode="&#xa8;" horiz-adv-x="515" 
d="M159 542q-32 0 -54 22t-22 53q0 30 22.5 52t53.5 22q30 0 52.5 -22t22.5 -52t-22.5 -52.5t-52.5 -22.5zM357 544q-30 0 -52 21.5t-22 51.5q0 29 22 51t52 22t52.5 -22t22.5 -51q0 -30 -22.5 -51.5t-52.5 -21.5z" />
    <glyph glyph-name="copyright" unicode="&#xa9;" horiz-adv-x="713" 
d="M356 4q-63 0 -127.5 28t-108 81.5t-59.5 106t-16 98.5q0 62 24 119.5t67 101t100.5 68t120.5 24.5t120.5 -24.5t100 -68t66.5 -101t24 -119.5t-24 -119t-67 -101t-100.5 -69t-120.5 -25zM356 80q48 0 91.5 18.5t75.5 51.5t50 77t18 91q0 48 -17.5 91.5t-49.5 76t-75.5 51
t-91.5 18.5t-91.5 -18.5t-75.5 -51.5t-50 -77t-18 -91t17.5 -90.5t49.5 -76.5t75.5 -51.5t91.5 -18.5zM365 153q-42 0 -81.5 18.5t-61 57.5t-21.5 87q0 70 44 117t120 47q35 0 69.5 -15.5t59.5 -46.5l-50 -43q-13 16 -34 28t-45 12q-40 0 -66.5 -27.5t-26.5 -71.5
q0 -43 26 -70t67 -27q22 0 44 11t35 27l50 -43q-22 -27 -55.5 -44t-73.5 -17z" />
    <glyph glyph-name="ordfeminine" unicode="&#xaa;" horiz-adv-x="421" 
d="M274 687h79v-293h-79v34h-1q-37 -40 -98 -40q-64 0 -103.5 42.5t-39.5 109.5q0 66 38.5 109t100.5 43q28 0 55 -12t47 -33h1v40zM194 463q33 0 55.5 21.5t22.5 55.5q0 33 -22.5 55.5t-55.5 22.5q-16 0 -35 -7.5t-32.5 -26.5t-13.5 -44q0 -33 23 -55t58 -22z" />
    <glyph glyph-name="guillemotleft" unicode="&#xab;" horiz-adv-x="494" 
d="M274 33h-112l-121 213l123 217h111l-123 -217zM465 33h-112l-121 213l123 217h111l-123 -217z" />
    <glyph glyph-name="logicalnot" unicode="&#xac;" horiz-adv-x="552" 
d="M401 152v161h-351v100h452v-261h-101z" />
    <glyph glyph-name="registered" unicode="&#xae;" horiz-adv-x="717" 
d="M359 634q64 0 122 -25t100.5 -68.5t66.5 -101.5t24 -121q0 -62 -24 -120t-67 -102t-101 -69t-122 -25q-63 0 -121 25t-101 69t-67 101.5t-24 120.5q0 62 24 120t67.5 102t101 69t121.5 25zM358 78q48 0 92 19t76.5 52t50.5 77t18 92t-18 92t-50 77.5t-75.5 52t-92.5 18.5
t-92.5 -19t-76 -52.5t-50.5 -77.5t-18 -92t18 -91.5t50 -77t76 -52t92 -18.5zM482 374q0 -37 -16.5 -61.5t-46.5 -35.5l79 -119h-78l-72 110h-35v-110h-66v324h123q55 0 83.5 -30t28.5 -78zM314 421v-93h41q28 0 43 13t15 34q0 20 -15 33t-41 13h-43z" />
    <glyph glyph-name="macron" unicode="&#xaf;" horiz-adv-x="445" 
d="M74 566v94h298v-94h-298z" />
    <glyph glyph-name="degree" unicode="&#xb0;" horiz-adv-x="392" 
d="M196 441q-57 0 -99 41t-42 97t43 97.5t98 41.5q56 0 98.5 -42t42.5 -98q0 -55 -42 -96t-99 -41zM196 515q27 0 45.5 18.5t18.5 45.5q0 26 -19.5 45.5t-44.5 19.5q-26 0 -45.5 -19.5t-19.5 -45.5t19 -45t46 -19z" />
    <glyph glyph-name="plusminus" unicode="&#xb1;" horiz-adv-x="613" 
d="M244 171v184h-185v102h185v185h103v-185h185v-102h-185v-184h-103zM81 -3v102h473v-102h-473z" />
    <glyph glyph-name="uni00B2" unicode="&#xb2;" horiz-adv-x="344" 
d="M163 521h152v-85h-288l-2 63l133 130q30 29 43 49t13 40q0 21 -14.5 35t-36.5 14q-18 0 -37.5 -10.5t-32.5 -31.5l-70 51q20 34 59 56t88 22q26 0 59.5 -11.5t57.5 -41.5t24 -72q0 -37 -15.5 -68t-58.5 -70l-74 -67v-3z" />
    <glyph glyph-name="uni00B3" unicode="&#xb3;" horiz-adv-x="351" 
d="M258 649q32 -14 49.5 -40t17.5 -60q0 -27 -13.5 -54.5t-50.5 -46.5t-85 -19q-42 0 -77.5 16t-54.5 38t-26 41l84 35q16 -47 67 -47q26 0 42 14t16 36t-17.5 35.5t-48.5 13.5h-30v70h37q24 0 39 12.5t15 30.5q0 21 -15 34t-39 13q-40 0 -56 -37l-78 42q14 34 51.5 56
t84.5 22q60 0 100.5 -30.5t40.5 -81.5q0 -29 -14 -53.5t-39 -39.5z" />
    <glyph glyph-name="acute" unicode="&#xb4;" horiz-adv-x="503" 
d="M149 538l115 144l123 1l-124 -145h-114z" />
    <glyph glyph-name="uni00B5" unicode="&#xb5;" horiz-adv-x="580" 
d="M401 488h112v-488h-102l-6 65h-1q-28 -34 -65.5 -53.5t-77.5 -19.5q-29 0 -50.5 9t-35.5 23h-2q6 -52 6 -107v-115h-112v686h112v-254q0 -71 27.5 -105.5t78.5 -34.5q31 0 59 17.5t42.5 53.5t14.5 79v244z" />
    <glyph glyph-name="paragraph" unicode="&#xb6;" horiz-adv-x="527" 
d="M366 -151v741h-62v-590h-72v316q-84 5 -135.5 50.5t-51.5 122.5q0 80 54.5 128t149.5 48h187v-816h-70z" />
    <glyph glyph-name="periodcentered" unicode="&#xb7;" horiz-adv-x="274" 
d="M136 171q-31 0 -53.5 22t-22.5 52t22.5 52.5t53.5 22.5q30 0 52.5 -22.5t22.5 -52.5t-22.5 -52t-52.5 -22z" />
    <glyph glyph-name="cedilla" unicode="&#xb8;" horiz-adv-x="378" 
d="M186 -32q92 -5 92 -80q0 -35 -30 -56.5t-89 -21.5q-29 0 -59 6v55q21 -7 50 -7q20 0 35.5 8t15.5 22t-22.5 24t-61.5 10v36l19 42h67l-18 -36z" />
    <glyph glyph-name="uni00B9" unicode="&#xb9;" horiz-adv-x="282" 
d="M131 436v295l-67 -46l-46 72l134 91h73v-412h-94z" />
    <glyph glyph-name="ordmasculine" unicode="&#xba;" horiz-adv-x="389" 
d="M189 388q-69 0 -113 43t-44 110q0 65 44 108t113 43q68 0 113 -42.5t45 -108.5q0 -67 -44.5 -110t-113.5 -43zM189 462q31 0 52 22.5t21 56.5q0 33 -21 55.5t-52 22.5t-51.5 -22.5t-20.5 -55.5q0 -34 20.5 -56.5t51.5 -22.5z" />
    <glyph glyph-name="guillemotright" unicode="&#xbb;" horiz-adv-x="494" 
d="M29 33l122 213l-123 217h111l123 -217l-121 -213h-112zM220 33l122 213l-123 217h111l123 -217l-121 -213h-112z" />
    <glyph glyph-name="onequarter" unicode="&#xbc;" horiz-adv-x="809" 
d="M291 -22l-90 39l313 708l91 -39zM131 299v295l-67 -46l-46 72l134 91h73v-412h-94zM637 0v64h-173v58l193 290h73v-267h57v-81h-57v-64h-93zM567 139h77v121z" />
    <glyph glyph-name="onehalf" unicode="&#xbd;" horiz-adv-x="842" 
d="M514 725l91 -39l-314 -708l-90 39zM225 299h-94v295l-67 -46l-46 72l134 91h73v-412zM661 85h152v-85h-288l-2 63l133 130q30 29 43 49t13 40q0 21 -14.5 35t-36.5 14q-18 0 -37.5 -10.5t-32.5 -31.5l-70 51q20 34 59 56t88 22q26 0 59.5 -11.5t57.5 -41.5t24 -72
q0 -37 -15.5 -68t-58.5 -70l-74 -67v-3z" />
    <glyph glyph-name="threequarters" unicode="&#xbe;" horiz-adv-x="857" 
d="M563 725l91 -39l-314 -708l-90 39zM325 412q0 -27 -13.5 -54.5t-50.5 -46.5t-85 -19q-42 0 -77.5 16t-54.5 38t-26 41l84 35q16 -47 67 -47q26 0 42 14t16 36t-17.5 35.5t-48.5 13.5h-30v70h37q24 0 39 12.5t15 30.5q0 21 -15 34t-39 13q-40 0 -56 -37l-78 42
q14 34 51.5 56t84.5 22q60 0 100.5 -30.5t40.5 -81.5q0 -29 -14 -53.5t-39 -39.5q32 -14 49.5 -40t17.5 -60zM778 145h57v-81h-57v-64h-93v64h-173v58l193 290h73v-267zM692 139v121l-77 -121h77z" />
    <glyph glyph-name="questiondown" unicode="&#xbf;" horiz-adv-x="447" 
d="M266 495q31 0 53.5 -22t22.5 -52t-22.5 -52.5t-53.5 -22.5q-30 0 -52.5 22.5t-22.5 52.5t22.5 52t52.5 22zM318 263v-50q0 -17 -4.5 -35t-17 -38.5t-64.5 -74.5q-39 -42 -51.5 -70t-12.5 -53q0 -41 25 -64.5t65 -23.5q29 0 58 16t47 43l84 -78q-34 -43 -86 -67.5
t-112 -24.5q-62 0 -109 25.5t-72.5 67.5t-25.5 100q0 26 9 57t29.5 60.5t49.5 57.5q6 6 31.5 29t39.5 41.5t15 37.5l3 44h99z" />
    <glyph glyph-name="Agrave" unicode="&#xc0;" 
d="M401 787h-114l-124 145l123 -1zM548 0l-54 153h-290l-53 -153h-126l265 710h118l266 -710h-126zM241 257h217l-108 308h-2z" />
    <glyph glyph-name="Aacute" unicode="&#xc1;" 
d="M537 932l-124 -145h-114l115 144zM548 0l-54 153h-290l-53 -153h-126l265 710h118l266 -710h-126zM241 257h217l-108 308h-2z" />
    <glyph glyph-name="Acircumflex" unicode="&#xc2;" 
d="M347 860l-55 -75h-109l113 147h100l118 -147h-110l-55 75h-2zM548 0l-54 153h-290l-53 -153h-126l265 710h118l266 -710h-126zM241 257h217l-108 308h-2z" />
    <glyph glyph-name="Atilde" unicode="&#xc3;" 
d="M285 838q-37 0 -58 -52l-68 31q11 37 30.5 63.5t42 36.5t41.5 10q20 0 38.5 -5.5t45.5 -22.5q29 -19 40.5 -22t17.5 -3q17 0 32 14t25 38l68 -23q-15 -55 -44.5 -87t-66.5 -32t-88 32q-35 22 -56 22zM548 0l-54 153h-290l-53 -153h-126l265 710h118l266 -710h-126z
M241 257h217l-108 308h-2z" />
    <glyph glyph-name="Adieresis" unicode="&#xc4;" 
d="M250 791q-32 0 -54 22t-22 53q0 30 22.5 52t53.5 22q30 0 52.5 -22t22.5 -52t-22.5 -52.5t-52.5 -22.5zM448 793q-30 0 -52 21.5t-22 51.5q0 29 22 51t52 22t52.5 -22t22.5 -51q0 -30 -22.5 -51.5t-52.5 -21.5zM548 0l-54 153h-290l-53 -153h-126l265 710h118l266 -710
h-126zM241 257h217l-108 308h-2z" />
    <glyph glyph-name="Aring" unicode="&#xc5;" 
d="M348 761q-32 0 -59 17.5t-38 42t-11 45.5q0 43 31 74t77 31q33 0 60 -17.5t38 -42t11 -45.5q0 -31 -18 -57.5t-43.5 -37t-47.5 -10.5zM348 905q-15 0 -26.5 -11.5t-11.5 -26.5q0 -16 11 -27t27 -11t27.5 11t11.5 27t-11.5 27t-27.5 11zM548 0l-54 153h-290l-53 -153h-126
l265 710h118l266 -710h-126zM241 257h217l-108 308h-2z" />
    <glyph glyph-name="AE" unicode="&#xc6;" horiz-adv-x="955" 
d="M555 108h347v-108h-468v153h-222l-78 -153h-127l365 710h510v-108h-327v-195h268v-108h-268v-191zM265 257h169v328h-2z" />
    <glyph glyph-name="Ccedilla" unicode="&#xc7;" horiz-adv-x="729" 
d="M413 107q27 0 62 9t69 32.5t60 55.5l89 -76q-22 -27 -59 -58t-84 -49t-79 -22.5t-53 -4.5l-12 -24l1 -2q92 -5 92 -80q0 -35 -30 -56.5t-89 -21.5q-29 0 -59 6v55q21 -7 50 -7q20 0 35.5 8t15.5 22t-22.5 24t-61.5 10v36l14 31v3q-62 9 -116.5 36.5t-95 73t-63 108
t-22.5 137.5t24 142t70 117t113.5 78t150.5 28q55 0 110.5 -18.5t98 -50t71.5 -67.5l-89 -75q-36 43 -86.5 70t-104.5 27q-50 0 -93.5 -18t-74 -51.5t-47.5 -80t-17 -101.5q0 -53 17 -99t48.5 -78.5t74.5 -50.5t92 -18z" />
    <glyph glyph-name="Egrave" unicode="&#xc8;" horiz-adv-x="607" 
d="M320 787l-124 145l123 -1l115 -144h-114zM87 0v710h447v-108h-326v-196h263v-108h-263v-190h347v-108h-468z" />
    <glyph glyph-name="Eacute" unicode="&#xc9;" horiz-adv-x="607" 
d="M220 787l115 144l123 1l-124 -145h-114zM87 0v710h447v-108h-326v-196h263v-108h-263v-190h347v-108h-468z" />
    <glyph glyph-name="Ecircumflex" unicode="&#xca;" horiz-adv-x="607" 
d="M318 860l-55 -75h-109l113 147h100l118 -147h-110l-55 75h-2zM208 108h347v-108h-468v710h447v-108h-326v-196h263v-108h-263v-190z" />
    <glyph glyph-name="Edieresis" unicode="&#xcb;" horiz-adv-x="607" 
d="M221 791q-32 0 -54 22t-22 53q0 30 22.5 52t53.5 22q30 0 52.5 -22t22.5 -52t-22.5 -52.5t-52.5 -22.5zM419 793q-30 0 -52 21.5t-22 51.5q0 29 22 51t52 22t52.5 -22t22.5 -51q0 -30 -22.5 -51.5t-52.5 -21.5zM87 0v710h447v-108h-326v-196h263v-108h-263v-190h347v-108
h-468z" />
    <glyph glyph-name="Igrave" unicode="&#xcc;" horiz-adv-x="304" 
d="M92 787l-124 145l123 -1l115 -144h-114zM91 0v710h121v-710h-121z" />
    <glyph glyph-name="Iacute" unicode="&#xcd;" horiz-adv-x="304" 
d="M102 787l115 144l123 1l-124 -145h-114zM91 0v710h121v-710h-121z" />
    <glyph glyph-name="Icircumflex" unicode="&#xce;" horiz-adv-x="304" 
d="M148 860l-55 -75h-109l113 147h100l118 -147h-110l-55 75h-2zM91 0v710h121v-710h-121z" />
    <glyph glyph-name="Idieresis" unicode="&#xcf;" horiz-adv-x="304" 
d="M51 791q-32 0 -54 22t-22 53q0 30 22.5 52t53.5 22q30 0 52.5 -22t22.5 -52t-22.5 -52.5t-52.5 -22.5zM249 793q-30 0 -52 21.5t-22 51.5q0 29 22 51t52 22t52.5 -22t22.5 -51q0 -30 -22.5 -51.5t-52.5 -21.5zM91 0v710h121v-710h-121z" />
    <glyph glyph-name="Eth" unicode="&#xd0;" horiz-adv-x="736" 
d="M313 710q82 0 151 -26t117.5 -73.5t74.5 -113.5t26 -143t-25 -142.5t-73 -113t-116.5 -73t-151.5 -25.5h-229v301h-59v103h59v306h226zM309 108q54 0 100.5 18.5t79.5 51.5t50.5 78.5t17.5 97.5q0 53 -17.5 98.5t-50 79t-77.5 52t-97 18.5h-107v-198h121v-103h-121v-193
h101z" />
    <glyph glyph-name="Ntilde" unicode="&#xd1;" horiz-adv-x="763" 
d="M317 838q-37 0 -58 -52l-68 31q11 37 30.5 63.5t42 36.5t41.5 10q20 0 38.5 -5.5t45.5 -22.5q29 -19 40.5 -22t17.5 -3q17 0 32 14t25 38l68 -23q-15 -55 -44.5 -87t-66.5 -32t-88 32q-35 22 -56 22zM556 710h120v-710h-123l-345 503v-503h-121v710h120l347 -510h2v510z
" />
    <glyph glyph-name="Ograve" unicode="&#xd2;" horiz-adv-x="827" 
d="M357 787l-124 145l123 -1l115 -144h-114zM414 -8q-77 0 -144 27t-115 76t-74 116.5t-26 143.5t26 143.5t74 116.5t115 76t144 27q75 0 141 -26t114.5 -74.5t75.5 -116t27 -146.5q0 -78 -27 -146t-75.5 -116t-114.5 -74.5t-141 -26.5zM414 105q48 0 90.5 18.5t74.5 52.5
t49.5 80t17.5 99q0 39 -12 82t-44 84.5t-80 62.5t-96 21q-24 0 -54.5 -6.5t-60.5 -23.5t-57.5 -47t-44.5 -76t-17 -97q0 -38 9.5 -74t28 -66t44 -53t64 -40t88.5 -17z" />
    <glyph glyph-name="Oacute" unicode="&#xd3;" horiz-adv-x="827" 
d="M362 787l115 144l123 1l-124 -145h-114zM414 -8q-77 0 -144 27t-115 76t-74 116.5t-26 143.5t26 143.5t74 116.5t115 76t144 27q75 0 141 -26t114.5 -74.5t75.5 -116t27 -146.5q0 -78 -27 -146t-75.5 -116t-114.5 -74.5t-141 -26.5zM414 105q48 0 90.5 18.5t74.5 52.5
t49.5 80t17.5 99q0 39 -12 82t-44 84.5t-80 62.5t-96 21q-24 0 -54.5 -6.5t-60.5 -23.5t-57.5 -47t-44.5 -76t-17 -97q0 -38 9.5 -74t28 -66t44 -53t64 -40t88.5 -17z" />
    <glyph glyph-name="Ocircumflex" unicode="&#xd4;" horiz-adv-x="827" 
d="M413 860l-55 -75h-109l113 147h100l118 -147h-110l-55 75h-2zM414 718q75 0 141 -26t114.5 -74.5t75.5 -116t27 -146.5q0 -78 -27 -146t-75.5 -116t-114.5 -74.5t-141 -26.5q-77 0 -144 27t-115 76t-74 116.5t-26 143.5t26 143.5t74 116.5t115 76t144 27zM414 105
q48 0 90.5 18.5t74.5 52.5t49.5 80t17.5 99q0 39 -12 82t-44 84.5t-80 62.5t-96 21q-24 0 -54.5 -6.5t-60.5 -23.5t-57.5 -47t-44.5 -76t-17 -97q0 -38 9.5 -74t28 -66t44 -53t64 -40t88.5 -17z" />
    <glyph glyph-name="Otilde" unicode="&#xd5;" horiz-adv-x="827" 
d="M495 784q-37 0 -88 32q-35 22 -56 22q-37 0 -58 -52l-68 31q11 37 30.5 63.5t42 36.5t41.5 10q20 0 38.5 -5.5t45.5 -22.5q29 -19 40.5 -22t17.5 -3q17 0 32 14t25 38l68 -23q-15 -55 -44.5 -87t-66.5 -32zM414 -8q-77 0 -144 27t-115 76t-74 116.5t-26 143.5t26 143.5
t74 116.5t115 76t144 27q75 0 141 -26t114.5 -74.5t75.5 -116t27 -146.5q0 -78 -27 -146t-75.5 -116t-114.5 -74.5t-141 -26.5zM414 105q48 0 90.5 18.5t74.5 52.5t49.5 80t17.5 99q0 39 -12 82t-44 84.5t-80 62.5t-96 21q-24 0 -54.5 -6.5t-60.5 -23.5t-57.5 -47t-44.5 -76
t-17 -97q0 -38 9.5 -74t28 -66t44 -53t64 -40t88.5 -17z" />
    <glyph glyph-name="Odieresis" unicode="&#xd6;" horiz-adv-x="827" 
d="M316 791q-32 0 -54 22t-22 53q0 30 22.5 52t53.5 22q30 0 52.5 -22t22.5 -52t-22.5 -52.5t-52.5 -22.5zM514 793q-30 0 -52 21.5t-22 51.5q0 29 22 51t52 22t52.5 -22t22.5 -51q0 -30 -22.5 -51.5t-52.5 -21.5zM414 -8q-77 0 -144 27t-115 76t-74 116.5t-26 143.5
t26 143.5t74 116.5t115 76t144 27q75 0 141 -26t114.5 -74.5t75.5 -116t27 -146.5q0 -78 -27 -146t-75.5 -116t-114.5 -74.5t-141 -26.5zM414 105q48 0 90.5 18.5t74.5 52.5t49.5 80t17.5 99q0 39 -12 82t-44 84.5t-80 62.5t-96 21q-24 0 -54.5 -6.5t-60.5 -23.5t-57.5 -47
t-44.5 -76t-17 -97q0 -38 9.5 -74t28 -66t44 -53t64 -40t88.5 -17z" />
    <glyph glyph-name="multiply" unicode="&#xd7;" horiz-adv-x="524" 
d="M122 66l-72 71l141 140l-141 140l71 72l140 -141l141 141l72 -71l-141 -142l140 -140l-71 -70l-140 140z" />
    <glyph glyph-name="Oslash" unicode="&#xd8;" horiz-adv-x="827" 
d="M785 677l-85 -93q34 -45 53 -104.5t19 -124.5q0 -78 -27 -146t-75.5 -116t-114.5 -74.5t-141 -26.5q-116 0 -205 58l-78 -85l-69 64l77 83q-40 47 -62 110t-22 133q0 76 26 143.5t74 116.5t115 76t144 27q61 0 118 -18t102 -51l83 90zM180 355q0 -86 44 -150l328 355
q-61 45 -138 45q-24 0 -54.5 -6.5t-60.5 -23.5t-57.5 -47t-44.5 -76t-17 -97zM646 355q0 35 -9 71t-25 63l-321 -350q25 -16 57.5 -25t65.5 -9q48 0 90.5 18.5t74.5 52.5t49.5 80t17.5 99z" />
    <glyph glyph-name="Ugrave" unicode="&#xd9;" horiz-adv-x="719" 
d="M322 787l-124 145l123 -1l115 -144h-114zM359 -8q-46 0 -94.5 13.5t-84.5 43t-58 65t-33.5 81t-11.5 97.5v418h120v-409q0 -53 19 -99.5t58 -71t85 -24.5q72 0 117.5 52.5t45.5 142.5v409h121v-418q0 -67 -19.5 -123t-56.5 -95.5t-90 -60.5t-118 -21z" />
    <glyph glyph-name="Uacute" unicode="&#xda;" horiz-adv-x="719" 
d="M282 787l115 144l123 1l-124 -145h-114zM359 -8q-46 0 -94.5 13.5t-84.5 43t-58 65t-33.5 81t-11.5 97.5v418h120v-409q0 -53 19 -99.5t58 -71t85 -24.5q72 0 117.5 52.5t45.5 142.5v409h121v-418q0 -67 -19.5 -123t-56.5 -95.5t-90 -60.5t-118 -21z" />
    <glyph glyph-name="Ucircumflex" unicode="&#xdb;" horiz-adv-x="719" 
d="M357 860l-55 -75h-109l113 147h100l118 -147h-110l-55 75h-2zM522 710h121v-418q0 -67 -19.5 -123t-56.5 -95.5t-90 -60.5t-118 -21q-46 0 -94.5 13.5t-84.5 43t-58 65t-33.5 81t-11.5 97.5v418h120v-409q0 -53 19 -99.5t58 -71t85 -24.5q72 0 117.5 52.5t45.5 142.5v409
z" />
    <glyph glyph-name="Udieresis" unicode="&#xdc;" horiz-adv-x="719" 
d="M260 791q-32 0 -54 22t-22 53q0 30 22.5 52t53.5 22q30 0 52.5 -22t22.5 -52t-22.5 -52.5t-52.5 -22.5zM458 793q-30 0 -52 21.5t-22 51.5q0 29 22 51t52 22t52.5 -22t22.5 -51q0 -30 -22.5 -51.5t-52.5 -21.5zM359 -8q-46 0 -94.5 13.5t-84.5 43t-58 65t-33.5 81
t-11.5 97.5v418h120v-409q0 -53 19 -99.5t58 -71t85 -24.5q72 0 117.5 52.5t45.5 142.5v409h121v-418q0 -67 -19.5 -123t-56.5 -95.5t-90 -60.5t-118 -21z" />
    <glyph glyph-name="Yacute" unicode="&#xdd;" horiz-adv-x="625" 
d="M481 932l-124 -145h-114l115 144zM471 710h140l-239 -396v-314h-121v314l-237 396h138l159 -275h2z" />
    <glyph glyph-name="Thorn" unicode="&#xde;" horiz-adv-x="649" 
d="M87 0v710h121v-131h157q45 0 89.5 -11.5t78 -39t53.5 -72t20 -107.5q0 -110 -69 -167t-187 -57h-142v-125h-121zM208 233h130q71 0 107 32.5t36 85.5q0 26 -11.5 55t-43 47t-80.5 18h-138v-238z" />
    <glyph glyph-name="germandbls" unicode="&#xdf;" horiz-adv-x="639" 
d="M479 424q27 -13 56.5 -39.5t48.5 -71t19 -92.5q0 -51 -16 -94t-46 -73t-71.5 -46t-89.5 -16h-103v101h76q58 0 97 37t39 93q0 26 -10.5 52t-29.5 45t-47 30t-62 11h-47v96h42q58 1 86 29.5t28 65.5q0 36 -31 63.5t-88 27.5q-72 0 -108 -36t-36 -118v-489h-112v486
q0 129 65 193.5t187 64.5q68 0 124 -23.5t82.5 -67t26.5 -90.5q0 -38 -16 -69.5t-35.5 -47t-28.5 -20.5v-2z" />
    <glyph glyph-name="agrave" unicode="&#xe0;" horiz-adv-x="611" 
d="M384 556h-114l-124 145l123 -1zM431 488h112v-488h-107v65h-2q-26 -35 -66 -54t-89 -19t-93 18t-76 51t-49.5 79.5t-17.5 101.5q0 53 17.5 100t49.5 81t75.5 53t92.5 19q46 0 85 -17t66 -49h2v59zM297 94q58 0 98.5 41.5t40.5 105.5q0 23 -7 49t-24 49t-44 39t-64 16
q-36 0 -70 -18.5t-52 -55t-18 -79.5q0 -64 39 -105.5t101 -41.5z" />
    <glyph glyph-name="aacute" unicode="&#xe1;" horiz-adv-x="611" 
d="M471 701l-124 -145h-114l115 144zM431 488h112v-488h-107v65h-2q-26 -35 -66 -54t-89 -19t-93 18t-76 51t-49.5 79.5t-17.5 101.5q0 53 17.5 100t49.5 81t75.5 53t92.5 19q46 0 85 -17t66 -49h2v59zM297 94q58 0 98.5 41.5t40.5 105.5q0 23 -7 49t-24 49t-44 39t-64 16
q-36 0 -70 -18.5t-52 -55t-18 -79.5q0 -64 39 -105.5t101 -41.5z" />
    <glyph glyph-name="acircumflex" unicode="&#xe2;" horiz-adv-x="611" 
d="M303 629l-55 -75h-109l113 147h100l118 -147h-110l-55 75h-2zM431 488h112v-488h-107v65h-2q-26 -35 -66 -54t-89 -19t-93 18t-76 51t-49.5 79.5t-17.5 101.5q0 53 17.5 100t49.5 81t75.5 53t92.5 19q46 0 85 -17t66 -49h2v59zM297 94q58 0 98.5 41.5t40.5 105.5
q0 23 -7 49t-24 49t-44 39t-64 16q-36 0 -70 -18.5t-52 -55t-18 -79.5q0 -64 39 -105.5t101 -41.5z" />
    <glyph glyph-name="atilde" unicode="&#xe3;" horiz-adv-x="611" 
d="M241 607q-37 0 -58 -52l-68 31q11 37 30.5 63.5t42 36.5t41.5 10q20 0 38.5 -5.5t45.5 -22.5q29 -19 40.5 -22t17.5 -3q17 0 32 14t25 38l68 -23q-15 -55 -44.5 -87t-66.5 -32t-88 32q-35 22 -56 22zM431 488h112v-488h-107v65h-2q-26 -35 -66 -54t-89 -19t-93 18t-76 51
t-49.5 79.5t-17.5 101.5q0 53 17.5 100t49.5 81t75.5 53t92.5 19q46 0 85 -17t66 -49h2v59zM297 94q58 0 98.5 41.5t40.5 105.5q0 23 -7 49t-24 49t-44 39t-64 16q-36 0 -70 -18.5t-52 -55t-18 -79.5q0 -64 39 -105.5t101 -41.5z" />
    <glyph glyph-name="adieresis" unicode="&#xe4;" horiz-adv-x="611" 
d="M206 560q-32 0 -54 22t-22 53q0 30 22.5 52t53.5 22q30 0 52.5 -22t22.5 -52t-22.5 -52.5t-52.5 -22.5zM404 562q-30 0 -52 21.5t-22 51.5q0 29 22 51t52 22t52.5 -22t22.5 -51q0 -30 -22.5 -51.5t-52.5 -21.5zM431 488h112v-488h-107v65h-2q-26 -35 -66 -54t-89 -19
t-93 18t-76 51t-49.5 79.5t-17.5 101.5q0 53 17.5 100t49.5 81t75.5 53t92.5 19q46 0 85 -17t66 -49h2v59zM297 94q58 0 98.5 41.5t40.5 105.5q0 23 -7 49t-24 49t-44 39t-64 16q-36 0 -70 -18.5t-52 -55t-18 -79.5q0 -64 39 -105.5t101 -41.5z" />
    <glyph glyph-name="aring" unicode="&#xe5;" horiz-adv-x="611" 
d="M304 530q-32 0 -59 17.5t-38 42t-11 45.5q0 43 31 74t77 31q33 0 60 -17.5t38 -42t11 -45.5q0 -31 -18 -57.5t-43.5 -37t-47.5 -10.5zM304 674q-15 0 -26.5 -11.5t-11.5 -26.5q0 -16 11 -27t27 -11t27.5 11t11.5 27t-11.5 27t-27.5 11zM431 488h112v-488h-107v65h-2
q-26 -35 -66 -54t-89 -19t-93 18t-76 51t-49.5 79.5t-17.5 101.5q0 53 17.5 100t49.5 81t75.5 53t92.5 19q46 0 85 -17t66 -49h2v59zM297 94q58 0 98.5 41.5t40.5 105.5q0 23 -7 49t-24 49t-44 39t-64 16q-36 0 -70 -18.5t-52 -55t-18 -79.5q0 -64 39 -105.5t101 -41.5z" />
    <glyph glyph-name="ae" unicode="&#xe6;" horiz-adv-x="789" 
d="M760 250q0 -31 -3 -45h-326q10 -50 44 -80.5t83 -30.5q22 0 50 12.5t55 44.5l77 -67q-33 -41 -82 -66.5t-106 -25.5q-51 0 -94.5 20.5t-73.5 56.5h-2q-18 -23 -47 -42t-63 -27t-63 -8q-56 0 -95 17.5t-61.5 51t-22.5 82.5q0 73 49.5 114.5t143.5 41.5h97v6q0 49 -19 69
t-56 20q-31 0 -69 -9.5t-67 -23.5l-43 89q43 23 93.5 34.5t93.5 11.5q103 0 141 -75h1q29 35 70.5 54.5t89.5 19.5q55 0 104.5 -31t75 -90t25.5 -124zM546 394q-39 0 -69.5 -26t-42.5 -69h213q-10 42 -38 68.5t-63 26.5zM220 89q28 0 53 14.5t36 31t12 26.5v46l-87 -1
q-44 0 -67.5 -15t-23.5 -44q0 -25 20 -41.5t57 -16.5z" />
    <glyph glyph-name="ccedilla" unicode="&#xe7;" horiz-adv-x="532" 
d="M308 -8l-11 -22l1 -2q92 -5 92 -80q0 -35 -30 -56.5t-89 -21.5q-29 0 -59 6v55q21 -7 50 -7q20 0 35.5 8t15.5 22t-22.5 24t-61.5 10v36l14 31v1q-89 16 -144 83t-55 164q0 55 18.5 101.5t52.5 80.5t81 52t101 18q58 0 114 -24t91 -67l-76 -66q-22 26 -53.5 41t-69.5 15
q-65 0 -105 -41.5t-40 -108.5t40.5 -108.5t104.5 -41.5q38 0 70.5 15t53.5 37l77 -68q-31 -35 -83 -59t-113 -27z" />
    <glyph glyph-name="egrave" unicode="&#xe8;" horiz-adv-x="562" 
d="M370 556h-114l-124 145l123 -1zM519 250q0 -18 -3 -45h-356q11 -51 48.5 -81t90.5 -30q30 0 63 12.5t59 44.5l78 -67q-32 -41 -85 -66.5t-121 -25.5q-52 0 -98 18t-80 51.5t-52.5 80.5t-18.5 102q0 54 18 101t50 80.5t76 51.5t94 18q52 0 96.5 -18t75.5 -51t48 -78.5
t17 -97.5zM288 394q-46 0 -80 -26t-46 -73h244q-11 45 -41.5 72t-76.5 27z" />
    <glyph glyph-name="eacute" unicode="&#xe9;" horiz-adv-x="562" 
d="M460 701l-124 -145h-114l115 144zM519 250q0 -18 -3 -45h-356q11 -51 48.5 -81t90.5 -30q30 0 63 12.5t59 44.5l78 -67q-32 -41 -85 -66.5t-121 -25.5q-52 0 -98 18t-80 51.5t-52.5 80.5t-18.5 102q0 54 18 101t50 80.5t76 51.5t94 18q52 0 96.5 -18t75.5 -51t48 -78.5
t17 -97.5zM288 394q-46 0 -80 -26t-46 -73h244q-11 45 -41.5 72t-76.5 27z" />
    <glyph glyph-name="ecircumflex" unicode="&#xea;" horiz-adv-x="562" 
d="M289 629l-55 -75h-109l113 147h100l118 -147h-110l-55 75h-2zM519 250q0 -18 -3 -45h-356q11 -51 48.5 -81t90.5 -30q30 0 63 12.5t59 44.5l78 -67q-32 -41 -85 -66.5t-121 -25.5q-52 0 -98 18t-80 51.5t-52.5 80.5t-18.5 102q0 54 18 101t50 80.5t76 51.5t94 18
q52 0 96.5 -18t75.5 -51t48 -78.5t17 -97.5zM288 394q-46 0 -80 -26t-46 -73h244q-11 45 -41.5 72t-76.5 27z" />
    <glyph glyph-name="edieresis" unicode="&#xeb;" horiz-adv-x="562" 
d="M192 560q-32 0 -54 22t-22 53q0 30 22.5 52t53.5 22q30 0 52.5 -22t22.5 -52t-22.5 -52.5t-52.5 -22.5zM390 562q-30 0 -52 21.5t-22 51.5q0 29 22 51t52 22t52.5 -22t22.5 -51q0 -30 -22.5 -51.5t-52.5 -21.5zM519 250q0 -18 -3 -45h-356q11 -51 48.5 -81t90.5 -30
q30 0 63 12.5t59 44.5l78 -67q-32 -41 -85 -66.5t-121 -25.5q-52 0 -98 18t-80 51.5t-52.5 80.5t-18.5 102q0 54 18 101t50 80.5t76 51.5t94 18q52 0 96.5 -18t75.5 -51t48 -78.5t17 -97.5zM288 394q-46 0 -80 -26t-46 -73h244q-11 45 -41.5 72t-76.5 27z" />
    <glyph glyph-name="igrave" unicode="&#xec;" horiz-adv-x="272" 
d="M79 556l-90 145l123 -1l81 -144h-114zM80 0v488h112v-488h-112z" />
    <glyph glyph-name="iacute" unicode="&#xed;" horiz-adv-x="272" 
d="M84 556l115 144l123 1l-124 -145h-114zM80 0v488h112v-488h-112z" />
    <glyph glyph-name="icircumflex" unicode="&#xee;" horiz-adv-x="272" 
d="M136 629h-2l-55 -75h-109l113 147h100l118 -147h-110zM80 0v488h112v-488h-112z" />
    <glyph glyph-name="idieresis" unicode="&#xef;" horiz-adv-x="272" 
d="M49 560q-32 0 -54 22t-22 53q0 30 22.5 52t53.5 22q30 0 52.5 -22t22.5 -52t-22.5 -52.5t-52.5 -22.5zM225 562q-30 0 -52.5 21.5t-22.5 51.5q0 29 22.5 51t52.5 22q29 0 51.5 -22t22.5 -51t-22 -51t-52 -22zM80 0v488h112v-488h-112z" />
    <glyph glyph-name="eth" unicode="&#xf0;" horiz-adv-x="596" 
d="M551 253v-2q0 -55 -18.5 -103t-53 -83t-82 -54t-102.5 -19q-51 0 -97.5 18t-80.5 50t-53 76.5t-19 94.5q0 55 18 101t50.5 78t75.5 49.5t92 17.5q57 0 109 -26l1 1q-22 37 -53.5 71t-66.5 58l-66 -51l-49 55l45 36v2q-39 19 -79 32l54 86q67 -24 113 -51l69 55l49 -59
l-51 -39v-1q92 -70 143.5 -171t51.5 -222zM297 94q60 0 99.5 41.5t39.5 103.5q0 60 -40 99.5t-100 39.5q-45 0 -78.5 -24.5t-46 -56.5t-12.5 -58q0 -62 39.5 -103.5t98.5 -41.5z" />
    <glyph glyph-name="ntilde" unicode="&#xf1;" horiz-adv-x="593" 
d="M232 607q-37 0 -58 -52l-68 31q11 37 30.5 63.5t42 36.5t41.5 10q20 0 38.5 -5.5t45.5 -22.5q29 -19 40.5 -22t17.5 -3q17 0 32 14t25 38l68 -23q-15 -55 -44.5 -87t-66.5 -32t-88 32q-35 22 -56 22zM350 495q62 0 101 -25.5t58.5 -70.5t19.5 -112v-287h-112v258
q0 74 -26.5 105t-79.5 31q-58 0 -92 -39t-34 -110v-245h-112v488h112v-68h1q30 36 73.5 55.5t90.5 19.5z" />
    <glyph glyph-name="ograve" unicode="&#xf2;" horiz-adv-x="600" 
d="M256 556l-124 145l123 -1l115 -144h-114zM300 -8q-56 0 -103.5 19t-81.5 53t-52.5 80.5t-18.5 98.5q0 53 18.5 99.5t52.5 80.5t81.5 53t103.5 19q55 0 102.5 -18t81.5 -52t53 -80.5t19 -101.5q0 -54 -19 -100.5t-53 -80t-81.5 -52t-102.5 -18.5zM300 94q60 0 101 42
t41 107q0 66 -40.5 108.5t-101.5 42.5q-63 0 -102.5 -43.5t-39.5 -107.5q0 -63 40 -106t102 -43z" />
    <glyph glyph-name="oacute" unicode="&#xf3;" horiz-adv-x="600" 
d="M240 556l115 144l123 1l-124 -145h-114zM300 -8q-56 0 -103.5 19t-81.5 53t-52.5 80.5t-18.5 98.5q0 53 18.5 99.5t52.5 80.5t81.5 53t103.5 19q55 0 102.5 -18t81.5 -52t53 -80.5t19 -101.5q0 -54 -19 -100.5t-53 -80t-81.5 -52t-102.5 -18.5zM300 94q60 0 101 42
t41 107q0 66 -40.5 108.5t-101.5 42.5q-63 0 -102.5 -43.5t-39.5 -107.5q0 -63 40 -106t102 -43z" />
    <glyph glyph-name="ocircumflex" unicode="&#xf4;" horiz-adv-x="600" 
d="M298 629l-55 -75h-109l113 147h100l118 -147h-110l-55 75h-2zM300 495q55 0 102.5 -18t81.5 -52t53 -80.5t19 -101.5q0 -54 -19 -100.5t-53 -80t-81.5 -52t-102.5 -18.5q-56 0 -103.5 19t-81.5 53t-52.5 80.5t-18.5 98.5q0 53 18.5 99.5t52.5 80.5t81.5 53t103.5 19z
M300 94q60 0 101 42t41 107q0 66 -40.5 108.5t-101.5 42.5q-63 0 -102.5 -43.5t-39.5 -107.5q0 -63 40 -106t102 -43z" />
    <glyph glyph-name="otilde" unicode="&#xf5;" horiz-adv-x="600" 
d="M380 553q-37 0 -88 32q-35 22 -56 22q-37 0 -58 -52l-68 31q11 37 30.5 63.5t42 36.5t41.5 10q20 0 38.5 -5.5t45.5 -22.5q29 -19 40.5 -22t17.5 -3q17 0 32 14t25 38l68 -23q-15 -55 -44.5 -87t-66.5 -32zM300 -8q-56 0 -103.5 19t-81.5 53t-52.5 80.5t-18.5 98.5
q0 53 18.5 99.5t52.5 80.5t81.5 53t103.5 19q55 0 102.5 -18t81.5 -52t53 -80.5t19 -101.5q0 -54 -19 -100.5t-53 -80t-81.5 -52t-102.5 -18.5zM300 94q60 0 101 42t41 107q0 66 -40.5 108.5t-101.5 42.5q-63 0 -102.5 -43.5t-39.5 -107.5q0 -63 40 -106t102 -43z" />
    <glyph glyph-name="odieresis" unicode="&#xf6;" horiz-adv-x="600" 
d="M201 560q-32 0 -54 22t-22 53q0 30 22.5 52t53.5 22q30 0 52.5 -22t22.5 -52t-22.5 -52.5t-52.5 -22.5zM399 562q-30 0 -52 21.5t-22 51.5q0 29 22 51t52 22t52.5 -22t22.5 -51q0 -30 -22.5 -51.5t-52.5 -21.5zM300 -8q-56 0 -103.5 19t-81.5 53t-52.5 80.5t-18.5 98.5
q0 53 18.5 99.5t52.5 80.5t81.5 53t103.5 19q55 0 102.5 -18t81.5 -52t53 -80.5t19 -101.5q0 -54 -19 -100.5t-53 -80t-81.5 -52t-102.5 -18.5zM300 94q60 0 101 42t41 107q0 66 -40.5 108.5t-101.5 42.5q-63 0 -102.5 -43.5t-39.5 -107.5q0 -63 40 -106t102 -43z" />
    <glyph glyph-name="divide" unicode="&#xf7;" horiz-adv-x="573" 
d="M290 396q-31 0 -53 22.5t-22 52.5t22 52t53 22t53.5 -22t22.5 -52t-22.5 -52.5t-53.5 -22.5zM59 226v102h473v-102h-473zM290 -3q-31 0 -53 22.5t-22 52.5t22 52t53 22t53.5 -22t22.5 -52t-22.5 -52.5t-53.5 -22.5z" />
    <glyph glyph-name="oslash" unicode="&#xf8;" horiz-adv-x="600" 
d="M569 459l-59 -63q46 -67 46 -153q0 -54 -19 -100.5t-53 -80t-81.5 -52t-102.5 -18.5q-36 0 -72 9t-63 25l-51 -55l-60 56l47 51q-27 32 -42 75t-15 90q0 53 18.5 99.5t52.5 80.5t81.5 53t103.5 19q88 0 151 -43l59 63zM158 243q0 -44 22 -82l197 211q-35 22 -77 22
q-63 0 -102.5 -43.5t-39.5 -107.5zM442 243q0 35 -13 66l-189 -202q26 -13 60 -13q60 0 101 42t41 107z" />
    <glyph glyph-name="ugrave" unicode="&#xf9;" horiz-adv-x="578" 
d="M368 556h-114l-124 145l123 -1zM397 488h112v-488h-112v64q-28 -34 -68 -53t-83 -19q-63 0 -103 23.5t-60 67t-20 108.5v297h112v-267q0 -62 19.5 -94.5t77.5 -32.5q22 0 45.5 10t41.5 31t28 51t10 68v234z" />
    <glyph glyph-name="uacute" unicode="&#xfa;" horiz-adv-x="578" 
d="M467 701l-124 -145h-114l115 144zM397 488h112v-488h-112v64q-28 -34 -68 -53t-83 -19q-63 0 -103 23.5t-60 67t-20 108.5v297h112v-267q0 -62 19.5 -94.5t77.5 -32.5q22 0 45.5 10t41.5 31t28 51t10 68v234z" />
    <glyph glyph-name="ucircumflex" unicode="&#xfb;" horiz-adv-x="578" 
d="M285 629l-55 -75h-109l113 147h100l118 -147h-110l-55 75h-2zM397 488h112v-488h-112v64q-28 -34 -68 -53t-83 -19q-63 0 -103 23.5t-60 67t-20 108.5v297h112v-267q0 -62 19.5 -94.5t77.5 -32.5q22 0 45.5 10t41.5 31t28 51t10 68v234z" />
    <glyph glyph-name="udieresis" unicode="&#xfc;" horiz-adv-x="578" 
d="M188 560q-32 0 -54 22t-22 53q0 30 22.5 52t53.5 22q30 0 52.5 -22t22.5 -52t-22.5 -52.5t-52.5 -22.5zM386 562q-30 0 -52 21.5t-22 51.5q0 29 22 51t52 22t52.5 -22t22.5 -51q0 -30 -22.5 -51.5t-52.5 -21.5zM397 488h112v-488h-112v64q-28 -34 -68 -53t-83 -19
q-63 0 -103 23.5t-60 67t-20 108.5v297h112v-267q0 -62 19.5 -94.5t77.5 -32.5q22 0 45.5 10t41.5 31t28 51t10 68v234z" />
    <glyph glyph-name="yacute" unicode="&#xfd;" horiz-adv-x="535" 
d="M429 701l-124 -145h-114l115 144zM398 488h117l-268 -686h-118l88 226l-198 460h118l135 -330z" />
    <glyph glyph-name="thorn" unicode="&#xfe;" horiz-adv-x="621" 
d="M341 495q49 0 92.5 -18.5t76 -53t50 -81.5t17.5 -100q0 -55 -17.5 -101.5t-50 -79.5t-76 -51t-93.5 -18q-98 0 -154 68h-1v-258h-112v934h112v-308q27 32 67.5 49.5t88.5 17.5zM323 94q61 0 100.5 41.5t39.5 105.5q0 43 -18.5 79.5t-52.5 55t-70 18.5q-62 0 -102 -43.5
t-40 -109.5q0 -24 7.5 -49t25 -47t45.5 -36.5t65 -14.5z" />
    <glyph glyph-name="ydieresis" unicode="&#xff;" horiz-adv-x="535" 
d="M169 560q-32 0 -54 22t-22 53q0 30 22.5 52t53.5 22q30 0 52.5 -22t22.5 -52t-22.5 -52.5t-52.5 -22.5zM367 562q-30 0 -52 21.5t-22 51.5q0 29 22 51t52 22t52.5 -22t22.5 -51q0 -30 -22.5 -51.5t-52.5 -21.5zM398 488h117l-268 -686h-118l88 226l-198 460h118l135 -330
z" />
    <glyph glyph-name="Abreve" unicode="&#x102;" 
d="M349 782q-28 0 -63.5 12.5t-62 47.5t-30.5 86h88q2 -29 20 -48.5t48 -19.5q29 0 48 19t20 49h88q-5 -64 -47.5 -105t-108.5 -41zM548 0l-54 153h-290l-53 -153h-126l265 710h118l266 -710h-126zM241 257h217l-108 308h-2z" />
    <glyph glyph-name="dotlessi" unicode="&#x131;" horiz-adv-x="272" 
d="M80 0v488h112v-488h-112z" />
    <glyph glyph-name="OE" unicode="&#x152;" horiz-adv-x="967" 
d="M565 108h349v-108h-464h-34q-78 0 -145 27t-115.5 75.5t-74.5 114t-26 139.5t26 139t74.5 113.5t115.5 75t145 26.5h69h409v-108h-329v-197h269v-108h-269v-189zM416 112l34 1v485h-34q-23 0 -53 -5.5t-60.5 -22t-58.5 -45.5t-46 -74t-18 -95t18 -95.5t50.5 -79t76 -51.5
t91.5 -18z" />
    <glyph glyph-name="oe" unicode="&#x153;" horiz-adv-x="802" 
d="M774 250q0 -15 -3 -45h-298q8 -51 37 -81t72 -30q27 0 52.5 16.5t41.5 40.5l78 -67q-28 -40 -77 -66t-101 -26q-51 0 -94.5 21.5t-71.5 59.5h-2q-28 -38 -70 -59.5t-90 -21.5t-88.5 19t-69.5 53t-44.5 80.5t-15.5 98.5q0 25 5.5 57t20.5 64.5t41.5 62.5t67.5 49t87 19
t87 -21.5t69 -59.5h2q28 38 70.5 59.5t92.5 21.5q43 0 80 -18t64 -51.5t42 -78.5t15 -97zM247 94q46 0 77.5 42t31.5 107q0 31 -9.5 66t-34.5 60t-60 25q-22 0 -46.5 -14.5t-43 -52.5t-18.5 -84q0 -63 28.5 -106t74.5 -43zM570 394q-36 0 -61 -25.5t-34 -69.5h188
q-10 43 -34 69t-59 26z" />
    <glyph glyph-name="Scaron" unicode="&#x160;" horiz-adv-x="591" 
d="M340 785h-100l-113 147h109l55 -76h2l55 76h110zM324 423q105 -41 135.5 -61t48 -41.5t27 -50.5t9.5 -65q0 -39 -14.5 -77.5t-47 -68.5t-80 -48.5t-103.5 -18.5q-69 0 -136.5 28.5t-120.5 83.5l76 93q36 -44 85.5 -68.5t96.5 -24.5q56 0 87 23.5t31 62.5q0 32 -19 53
t-50 34.5t-68 26.5q-70 25 -116 51.5t-72.5 67t-26.5 97.5q0 51 30 98.5t84.5 73.5t110.5 26q123 1 235 -87l-72 -95q-43 35 -85 54t-78 19q-42 0 -70.5 -22.5t-29.5 -60.5q0 -18 10.5 -35.5t37.5 -31.5t85 -36z" />
    <glyph glyph-name="scaron" unicode="&#x161;" horiz-adv-x="449" 
d="M278 554h-100l-113 147h109l55 -76h2l55 76h110zM242 297q74 -29 96.5 -41t37.5 -25.5t25 -34.5t10 -56q0 -31 -11.5 -58t-34 -47t-57 -31.5t-79.5 -11.5q-57 0 -108 18.5t-89 52.5l56 84q29 -29 63.5 -43t77.5 -14q31 0 49.5 13t18.5 35q0 13 -15 24.5t-81 34.5
q-81 28 -115 65t-34 95q0 37 19.5 67t58.5 50.5t94 20.5q97 0 172 -61l-56 -88q-27 26 -59.5 39t-62.5 13q-19 0 -36 -11t-17 -31q0 -30 77 -59z" />
    <glyph glyph-name="Ydieresis" unicode="&#x178;" horiz-adv-x="625" 
d="M215 791q-32 0 -54 22t-22 53q0 30 22.5 52t53.5 22q30 0 52.5 -22t22.5 -52t-22.5 -52.5t-52.5 -22.5zM413 793q-30 0 -52 21.5t-22 51.5q0 29 22 51t52 22t52.5 -22t22.5 -51q0 -30 -22.5 -51.5t-52.5 -21.5zM471 710h140l-239 -396v-314h-121v314l-237 396h138
l159 -275h2z" />
    <glyph glyph-name="Zcaron" unicode="&#x17d;" horiz-adv-x="626" 
d="M360 785h-100l-113 147h109l55 -76h2l55 76h110zM210 108h357v-108h-510v95l350 506v1h-334v108h492v-93l-355 -507v-2z" />
    <glyph glyph-name="zcaron" unicode="&#x17e;" horiz-adv-x="489" 
d="M294 554h-100l-113 147h109l55 -76h2l55 76h110zM445 411l-255 -315v-1h251v-95h-401v79l251 311v3h-234v95h388v-77z" />
    <glyph glyph-name="florin" unicode="&#x192;" horiz-adv-x="549" 
d="M110 -143q-50 0 -87 13t-53 29l40 79q40 -20 79 -20q71 0 83 91l42 325h-76l14 95h76l14 109q22 166 175 166q37 0 76 -10.5t64 -31.5l-41 -79q-41 19 -80 19q-71 0 -82 -91l-10 -82h138l-13 -95h-139l-46 -351q-21 -166 -174 -166z" />
    <glyph glyph-name="uni0237" unicode="&#x237;" horiz-adv-x="249" 
d="M46 -206q-51 0 -95 18l19 97q22 -14 44 -14q24 0 40 18.5t16 53.5v521h112v-521q0 -82 -38.5 -127.5t-97.5 -45.5z" />
    <glyph glyph-name="circumflex" unicode="&#x2c6;" horiz-adv-x="477" 
d="M294 536l-55 75h-2l-55 -75h-109l113 147h100l118 -147h-110z" />
    <glyph glyph-name="tilde" unicode="&#x2dc;" horiz-adv-x="495" 
d="M327 535q-37 0 -88 32q-35 22 -56 22q-37 0 -58 -52l-68 31q11 37 30.5 63.5t42 36.5t41.5 10q20 0 38.5 -5.5t45.5 -22.5q29 -19 40.5 -22t17.5 -3q17 0 32 14t25 38l68 -23q-15 -55 -44.5 -87t-66.5 -32z" />
    <glyph glyph-name="endash" unicode="&#x2013;" horiz-adv-x="573" 
d="M53 248v100h467v-100h-467z" />
    <glyph glyph-name="emdash" unicode="&#x2014;" horiz-adv-x="1040" 
d="M53 248v100h934v-100h-934z" />
    <glyph glyph-name="quoteleft" unicode="&#x2018;" horiz-adv-x="215" 
d="M183 709l-31 -253h-120l60 253h91z" />
    <glyph glyph-name="quoteright" unicode="&#x2019;" horiz-adv-x="215" 
d="M32 457l31 253h120l-60 -253h-91z" />
    <glyph glyph-name="quotesinglbase" unicode="&#x201a;" horiz-adv-x="238" 
d="M27 -132l32 253h120l-70 -253h-82z" />
    <glyph glyph-name="quotedblleft" unicode="&#x201c;" horiz-adv-x="387" 
d="M183 710l-31 -253h-120l60 253h91zM355 710l-31 -253h-120l60 253h91z" />
    <glyph glyph-name="quotedblright" unicode="&#x201d;" horiz-adv-x="387" 
d="M32 457l31 253h120l-60 -253h-91zM204 457l31 253h120l-60 -253h-91z" />
    <glyph glyph-name="quotedblbase" unicode="&#x201e;" horiz-adv-x="411" 
d="M28 -78l31 253h120l-60 -253h-91zM200 -78l31 253h120l-60 -253h-91z" />
    <glyph glyph-name="dagger" unicode="&#x2020;" horiz-adv-x="400" 
d="M201 234l-34 58l4 129l-1 109h-19l-96 -5v68l96 -4h19l-3 97h69l-5 -97h19l96 5v-69l-96 5h-20v-109l6 -129z" />
    <glyph glyph-name="daggerdbl" unicode="&#x2021;" horiz-adv-x="400" 
d="M167 55l3 95h-19l-96 -4v68l95 -4h21v70l-4 92l4 92v66h-20l-96 -4v67l95 -5h20l-4 98h69l-5 -98h19l97 5v-67l-97 4h-19v-66l5 -92l-6 -92l1 -70h19l97 4v-67l-97 3h-19l5 -95h-68z" />
    <glyph glyph-name="bullet" unicode="&#x2022;" horiz-adv-x="426" 
d="M213 205q-21 0 -47.5 11t-45.5 39t-19 61q0 21 11 47.5t39.5 45.5t61.5 19q21 0 47.5 -11t46 -39.5t19.5 -61.5q0 -21 -11 -47t-39.5 -45t-62.5 -19z" />
    <glyph glyph-name="ellipsis" unicode="&#x2026;" horiz-adv-x="1000" 
d="M167 -8q-31 0 -53.5 22t-22.5 52t22.5 52.5t53.5 22.5q30 0 52.5 -22.5t22.5 -52.5t-22.5 -52t-52.5 -22zM500 -8q-31 0 -53.5 22t-22.5 52t22.5 52.5t53.5 22.5q30 0 52.5 -22.5t22.5 -52.5t-22.5 -52t-52.5 -22zM834 -8q-31 0 -53.5 22t-22.5 52t22.5 52.5t53.5 22.5
q30 0 52.5 -22.5t22.5 -52.5t-22.5 -52t-52.5 -22z" />
    <glyph glyph-name="perthousand" unicode="&#x2030;" horiz-adv-x="1473" 
d="M401 -22l-90 39l314 708l90 -39zM247 321q-41 0 -78 14t-65 40.5t-43.5 64t-15.5 80.5q0 30 9.5 63t37 66.5t69.5 51t86 17.5q51 0 99.5 -24.5t75 -72t26.5 -101.5q0 -30 -9.5 -63t-37 -67t-69.5 -51.5t-85 -17.5zM247 406q47 0 77 32.5t30 80.5q0 23 -10.5 49.5
t-37 44.5t-59.5 18q-22 0 -46.5 -11t-41.5 -39t-17 -62q0 -23 10.5 -49.5t36.5 -45t58 -18.5zM776 -8q-40 0 -77 14.5t-65 41t-43.5 63.5t-15.5 80q0 30 9.5 63t37 66.5t69.5 51t85 17.5q41 0 78 -14t65 -40.5t43.5 -63.5t15.5 -80q0 -30 -9.5 -63t-37 -67t-69.5 -51.5
t-86 -17.5zM1226 -8q-41 0 -78 14.5t-65 41t-43.5 63.5t-15.5 80q0 30 9.5 63t37 66.5t69.5 51t86 17.5q51 0 99.5 -24.5t75 -72t26.5 -101.5q0 -30 -9.5 -63t-37 -67t-69.5 -51.5t-85 -17.5zM777 78q34 0 60.5 19t36.5 45t10 48q0 23 -10.5 49.5t-37.5 44.5t-59 18
q-34 0 -60.5 -19t-36.5 -45t-10 -48q0 -23 10.5 -49.5t37.5 -44.5t59 -18zM1226 78q34 0 60.5 19t36.5 45t10 48q0 23 -10.5 49.5t-37.5 44.5t-59 18q-22 0 -47 -11t-42 -39t-17 -62q0 -23 10.5 -49.5t37 -44.5t58.5 -18z" />
    <glyph glyph-name="guilsinglleft" unicode="&#x2039;" horiz-adv-x="308" 
d="M279 463l-122 -213l123 -217h-111l-123 217l121 213h112z" />
    <glyph glyph-name="guilsinglright" unicode="&#x203a;" horiz-adv-x="303" 
d="M29 33l122 213l-123 217h111l123 -217l-121 -213h-112z" />
    <glyph glyph-name="Euro" unicode="&#x20ac;" horiz-adv-x="602" 
d="M510 140l65 -87q-87 -60 -191 -60q-51 0 -100 15.5t-90.5 46t-71.5 76t-44 102.5h-67v70h57l-1 29l1 32h-57v70h69q13 52 40 96t66 76t89.5 49.5t108.5 17.5q102 0 186 -58l-68 -86q-25 17 -56.5 27t-61.5 10q-29 0 -63 -11.5t-65.5 -43.5t-48.5 -77h240v-70h-256l-2 -32
l1 -29h257v-70h-241q11 -29 34.5 -60.5t62.5 -51.5t81 -20q71 0 126 39z" />
    <glyph glyph-name="trademark" unicode="&#x2122;" horiz-adv-x="690" 
d="M109 387v259h-86v64h245v-64h-87v-259h-72zM313 387v323h73l93 -177l92 177h73v-323h-71v191l-72 -129h-46l-73 129v-191h-69z" />
    </font>
</defs>
</svg>
